<svg preserveAspectRatio="none" width="100%" height="100%" overflow="visible" style="display: block;" viewBox="0 0 26 32" fill="none" xmlns="http://www.w3.org/2000/svg">
<g id="Drag Handle">
<path id="Icon" d="M10 24C9.45 24 8.97917 23.8042 8.5875 23.4125C8.19583 23.0208 8 22.55 8 22C8 21.45 8.19583 20.9792 8.5875 20.5875C8.97917 20.1958 9.45 20 10 20C10.55 20 11.0208 20.1958 11.4125 20.5875C11.8042 20.9792 12 21.45 12 22C12 22.55 11.8042 23.0208 11.4125 23.4125C11.0208 23.8042 10.55 24 10 24V24M16 24C15.45 24 14.9792 23.8042 14.5875 23.4125C14.1958 23.0208 14 22.55 14 22C14 21.45 14.1958 20.9792 14.5875 20.5875C14.9792 20.1958 15.45 20 16 20C16.55 20 17.0208 20.1958 17.4125 20.5875C17.8042 20.9792 18 21.45 18 22C18 22.55 17.8042 23.0208 17.4125 23.4125C17.0208 23.8042 16.55 24 16 24V24M10 18C9.45 18 8.97917 17.8042 8.5875 17.4125C8.19583 17.0208 8 16.55 8 16C8 15.45 8.19583 14.9792 8.5875 14.5875C8.97917 14.1958 9.45 14 10 14C10.55 14 11.0208 14.1958 11.4125 14.5875C11.8042 14.9792 12 15.45 12 16C12 16.55 11.8042 17.0208 11.4125 17.4125C11.0208 17.8042 10.55 18 10 18V18M16 18C15.45 18 14.9792 17.8042 14.5875 17.4125C14.1958 17.0208 14 16.55 14 16C14 15.45 14.1958 14.9792 14.5875 14.5875C14.9792 14.1958 15.45 14 16 14C16.55 14 17.0208 14.1958 17.4125 14.5875C17.8042 14.9792 18 15.45 18 16C18 16.55 17.8042 17.0208 17.4125 17.4125C17.0208 17.8042 16.55 18 16 18V18M10 12C9.45 12 8.97917 11.8042 8.5875 11.4125C8.19583 11.0208 8 10.55 8 10C8 9.45 8.19583 8.97917 8.5875 8.5875C8.97917 8.19583 9.45 8 10 8C10.55 8 11.0208 8.19583 11.4125 8.5875C11.8042 8.97917 12 9.45 12 10C12 10.55 11.8042 11.0208 11.4125 11.4125C11.0208 11.8042 10.55 12 10 12V12M16 12C15.45 12 14.9792 11.8042 14.5875 11.4125C14.1958 11.0208 14 10.55 14 10C14 9.45 14.1958 8.97917 14.5875 8.5875C14.9792 8.19583 15.45 8 16 8C16.55 8 17.0208 8.19583 17.4125 8.5875C17.8042 8.97917 18 9.45 18 10C18 10.55 17.8042 11.0208 17.4125 11.4125C17.0208 11.8042 16.55 12 16 12V12" fill="var(--fill-0, #8E7164)"/>
</g>
</svg>
