<svg preserveAspectRatio="none" width="100%" height="100%" overflow="visible" style="display: block;" viewBox="0 0 38.4 38.4" fill="none" xmlns="http://www.w3.org/2000/svg">
<g id="Mastercard Logo [Vectorized]" clip-path="url(#clip0_147_14890)">
<path id="Vector" d="M0 0H38.4V38.4H0V0ZM18.8213 12.047C18.4872 11.8482 18.2268 11.4697 17.8611 11.2405C16.1243 10.1237 13.9166 9.39795 11.8479 9.87158C8.66813 10.5997 5.33629 13.372 4.84837 16.7178C4.35424 20.1065 5.25465 23.2658 8.01461 25.4416L7.91543 25.5423C7.92709 25.7308 8.0349 25.8028 8.21831 25.802C8.27445 25.7496 8.27993 25.7473 8.31101 25.6785C11.3721 27.7029 14.7429 27.6908 17.9134 25.9507C18.1812 25.8036 18.5152 25.3035 18.7732 25.0841L18.8015 25.0603C22.2813 28.126 27.5585 27.9063 30.7714 24.5619C33.9842 21.2175 33.9923 15.9358 30.7896 12.5817C27.5869 9.22763 22.3104 8.99186 18.8213 12.047Z" fill="var(--fill-0, #141A23)"/>
<path id="Vector_2" d="M18.8213 12.047C22.3104 8.9919 27.5869 9.22766 30.7896 12.5817C33.9923 15.9358 33.9843 21.2176 30.7714 24.5619C27.5586 27.9063 22.2813 28.126 18.8016 25.0604C16.932 23.4133 15.8625 21.0408 15.8662 18.5492C15.87 16.0576 16.9468 13.6884 18.8213 12.047Z" fill="var(--fill-0, #FCA127)"/>
<path id="Vector_3" d="M8.01458 25.4414C5.25462 23.2656 4.35421 20.1062 4.84835 16.7175C5.33626 13.3717 8.6681 10.5994 11.8479 9.87133C13.9165 9.39771 16.1242 10.1235 17.8611 11.2402C18.2268 11.4694 18.4871 11.848 18.8213 12.0467C16.9467 13.6881 15.87 16.0573 15.8662 18.5489C15.8624 21.0405 16.932 23.413 18.8015 25.0601L18.7732 25.0838C18.5152 25.3033 18.1812 25.8034 17.9133 25.9504C14.7428 27.6905 11.3721 27.7027 8.31098 25.6783L8.01458 25.4414Z" fill="var(--fill-0, #EC3727)"/>
<path id="Vector_4" d="M8.01462 25.4413L8.31102 25.6782C8.27993 25.7469 8.27445 25.7492 8.21832 25.8016C8.0349 25.8025 7.92709 25.7305 7.91543 25.5419L8.01462 25.4413Z" fill="var(--fill-0, #141A23)"/>
</g>
<defs>
<clipPath id="clip0_147_14890">
<rect width="38.4" height="38.4" fill="white"/>
</clipPath>
</defs>
</svg>
