<svg preserveAspectRatio="none" width="100%" height="100%" overflow="visible" style="display: block;" viewBox="0 0 24 24" fill="none" xmlns="http://www.w3.org/2000/svg">
<g id="ListNumbers">
<path id="Vector" d="M19 12.2914C19 12.5235 18.9115 12.7461 18.754 12.9102C18.5964 13.0743 18.3828 13.1665 18.16 13.1665H11.1598C10.937 13.1665 10.7234 13.0743 10.5658 12.9102C10.4083 12.7461 10.3198 12.5235 10.3198 12.2914C10.3198 12.0594 10.4083 11.8368 10.5658 11.6727C10.7234 11.5086 10.937 11.4164 11.1598 11.4164H18.16C18.3828 11.4164 18.5964 11.5086 18.754 11.6727C18.9115 11.8368 19 12.0594 19 12.2914ZM11.1598 8.49965H18.16C18.3828 8.49965 18.5964 8.40746 18.754 8.24336C18.9115 8.07926 19 7.85669 19 7.62462C19 7.39255 18.9115 7.16998 18.754 7.00588C18.5964 6.84178 18.3828 6.74959 18.16 6.74959H11.1598C10.937 6.74959 10.7234 6.84178 10.5658 7.00588C10.4083 7.16998 10.3198 7.39255 10.3198 7.62462C10.3198 7.85669 10.4083 8.07926 10.5658 8.24336C10.7234 8.40746 10.937 8.49965 11.1598 8.49965ZM18.16 16.0832H11.1598C10.937 16.0832 10.7234 16.1754 10.5658 16.3395C10.4083 16.5036 10.3198 16.7262 10.3198 16.9583C10.3198 17.1903 10.4083 17.4129 10.5658 17.577C10.7234 17.7411 10.937 17.8333 11.1598 17.8333H18.16C18.3828 17.8333 18.5964 17.7411 18.754 17.577C18.9115 17.4129 19 17.1903 19 16.9583C19 16.7262 18.9115 16.5036 18.754 16.3395C18.5964 16.1754 18.3828 16.0832 18.16 16.0832ZM6.11968 7.28263V10.5414C6.11968 10.7735 6.20818 10.996 6.36572 11.1601C6.52325 11.3242 6.73691 11.4164 6.9597 11.4164C7.18249 11.4164 7.39615 11.3242 7.55369 11.1601C7.71122 10.996 7.79972 10.7735 7.79972 10.5414V5.87456C7.79965 5.72549 7.76301 5.57891 7.69329 5.44873C7.62357 5.31855 7.52308 5.20908 7.40135 5.1307C7.27962 5.05233 7.14069 5.00765 6.99773 5.0009C6.85477 4.99415 6.71253 5.02556 6.58449 5.09214L5.46446 5.67549C5.27906 5.77843 5.13742 5.94999 5.06746 6.15635C4.99751 6.36271 5.00434 6.58889 5.08659 6.79026C5.16884 6.99164 5.32054 7.15361 5.51178 7.24421C5.70302 7.33482 5.91992 7.34748 6.11968 7.27971V7.28263ZM8.90085 14.3456C8.86486 14.0758 8.77685 13.8163 8.64211 13.5829C8.50737 13.3494 8.3287 13.1468 8.11683 12.9871C7.69445 12.6677 7.16991 12.5309 6.65289 12.6051C6.13587 12.6793 5.6664 12.9588 5.34266 13.3852C5.21843 13.5515 5.11994 13.737 5.05075 13.935C4.97782 14.1523 4.98998 14.3907 5.08461 14.5987C5.17923 14.8066 5.3487 14.9674 5.5563 15.0461C5.76391 15.1249 5.99293 15.1152 6.19376 15.0193C6.3946 14.9234 6.55107 14.7489 6.62929 14.5337C6.63937 14.5075 6.65304 14.4829 6.66989 14.4608C6.72416 14.3923 6.80146 14.348 6.88602 14.3369C6.97058 14.3258 7.05602 14.3487 7.12491 14.401C7.15521 14.4228 7.18087 14.4509 7.20026 14.4835C7.21966 14.5162 7.23237 14.5526 7.23761 14.5906C7.2423 14.6263 7.23994 14.6626 7.23067 14.6974C7.2214 14.7321 7.20542 14.7645 7.18371 14.7926L7.17461 14.805L5.16696 17.6014C5.07372 17.7315 5.01705 17.886 5.00329 18.0477C4.98952 18.2093 5.01919 18.3718 5.089 18.5169C5.1588 18.6621 5.26598 18.7841 5.39855 18.8694C5.53112 18.9547 5.68385 18.9999 5.83967 19H8.07973C8.30252 19 8.51618 18.9078 8.67371 18.7437C8.83125 18.5796 8.91975 18.357 8.91975 18.125C8.91975 17.8929 8.83125 17.6703 8.67371 17.5062C8.51618 17.3421 8.30252 17.2499 8.07973 17.2499H7.51972L8.51934 15.8565C8.67682 15.6441 8.79173 15.4009 8.85727 15.1413C8.92281 14.8818 8.93763 14.6112 8.90085 14.3456Z" fill="var(--fill-0, #FF5533)"/>
</g>
</svg>
