<svg preserveAspectRatio="none" width="100%" height="100%" overflow="visible" style="display: block;" viewBox="0 0 32 32" fill="none" xmlns="http://www.w3.org/2000/svg">
<g id="image 16 [Vectorized]">
<path id="Vector" d="M13.0173 5.29119C14.2201 5.24447 15.6526 5.30038 16.875 5.28651C17.6551 5.27763 19.2262 5.24569 19.9557 5.31063C20.1014 5.53294 20.6859 6.05172 20.9125 6.26504L22.4671 7.73441L25.4831 10.593C25.7723 10.8634 26.0422 11.1452 26.3383 11.4086L25.5156 11.4068C21.0898 11.408 16.6048 11.448 12.1854 11.4006C12.2157 9.58391 12.1347 7.75229 12.2173 5.93891C12.2358 5.53422 12.6667 5.32975 13.0173 5.29119Z" fill="var(--fill-0, #FEFEFE)"/>
<path id="Vector_2" d="M5.66903 20.5964C7.27984 20.6317 9.06137 20.5933 10.6873 20.5934L19.8089 20.5908L19.8006 24.4752C19.8005 24.9952 19.8346 25.5961 19.7921 26.1115C19.7855 26.1903 19.6356 26.3929 19.582 26.4689C19.4802 26.5622 19.3391 26.6685 19.2008 26.6794C18.4489 26.7388 17.6232 26.7107 16.8685 26.7109L12.0734 26.7109C11.8276 26.414 11.4952 26.1182 11.2131 25.8479C10.7239 25.3747 10.2296 24.9068 9.73025 24.4443L5.66903 20.5964Z" fill="var(--fill-0, #FEFEFE)"/>
<path id="Vector_3" d="M11.3624 5.71036C11.3719 5.72533 11.3837 5.7437 11.3977 5.76548C11.4121 6.74364 11.408 8.02698 11.4082 8.97951L11.4036 19.8039L7.91431 19.8092C7.305 19.8113 6.62853 19.8349 6.02475 19.781C5.83156 19.7638 5.70581 19.7032 5.55097 19.591C5.51087 19.5547 5.47303 19.516 5.43762 19.475C5.22856 19.2334 5.28787 18.3112 5.28893 17.9611L5.29081 16.1741L5.28968 13.6999C5.28915 13.172 5.27512 12.57 5.3109 12.0484C5.56068 11.8651 6.01972 11.3504 6.24284 11.1135L7.88356 9.37136L10.4461 6.67114C10.7359 6.36173 11.0964 6.02455 11.3624 5.71036Z" fill="var(--fill-0, #FEFEFE)"/>
<path id="Vector_4" d="M20.5968 12.2004C22.2516 12.1288 23.9773 12.2406 25.6371 12.1855C26.9318 12.1425 26.7188 13.121 26.7146 14.0508L26.7131 15.7292C26.7135 17.0171 26.7593 18.6586 26.702 19.918C25.6622 20.9225 24.5711 22.1377 23.5575 23.1961C22.5617 24.225 21.5989 25.3032 20.5918 26.3278L20.5968 12.2004Z" fill="var(--fill-0, #FEFEFE)"/>
</g>
</svg>
