<svg preserveAspectRatio="none" width="100%" height="100%" overflow="visible" style="display: block;" viewBox="0 0 13 13" fill="none" xmlns="http://www.w3.org/2000/svg">
<g id="Eye">
<path id="Vector" d="M12.7461 6.2527C12.7273 6.21156 12.2825 5.22387 11.2998 4.24125C9.98512 2.92855 8.32813 2.23438 6.5 2.23438C4.67188 2.23438 3.01488 2.92855 1.70168 4.24125C0.719062 5.22387 0.274219 6.21156 0.253906 6.2527C0.219504 6.33069 0.201735 6.41501 0.201735 6.50025C0.201735 6.5855 0.219504 6.66981 0.253906 6.74781C0.272695 6.78945 0.717539 7.77664 1.70066 8.75926C3.01488 10.072 4.67188 10.7656 6.5 10.7656C8.32813 10.7656 9.98512 10.072 11.2978 8.75926C12.2809 7.77664 12.7258 6.78945 12.7446 6.74781C12.7792 6.66992 12.7972 6.58566 12.7975 6.50041C12.7978 6.41517 12.7803 6.3308 12.7461 6.2527ZM10.4071 7.92848C9.31684 9.00199 8.00262 9.54688 6.5 9.54688C4.99738 9.54688 3.68316 9.00199 2.59441 7.92797C2.166 7.50406 1.79747 7.02363 1.49906 6.5C1.79756 5.97658 2.16608 5.49633 2.59441 5.07254C3.68367 3.99801 4.99738 3.45312 6.5 3.45312C8.00262 3.45312 9.31633 3.99801 10.4056 5.07254C10.834 5.49629 11.2025 5.97655 11.5009 6.5C11.2025 7.0236 10.834 7.50402 10.4056 7.92797L10.4071 7.92848ZM6.5 4.26562C6.05808 4.26562 5.62609 4.39667 5.25865 4.64219C4.89121 4.8877 4.60482 5.23666 4.43571 5.64494C4.26659 6.05322 4.22234 6.50248 4.30856 6.9359C4.39477 7.36933 4.60758 7.76746 4.92006 8.07994C5.23254 8.39242 5.63067 8.60523 6.0641 8.69144C6.49752 8.77766 6.94678 8.73341 7.35506 8.56429C7.76334 8.39518 8.1123 8.10879 8.35781 7.74135C8.60333 7.37391 8.73437 6.94192 8.73437 6.5C8.7337 5.90761 8.49808 5.33968 8.0792 4.9208C7.66032 4.50192 7.09239 4.2663 6.5 4.26562ZM6.5 7.51562C6.29913 7.51562 6.10277 7.45606 5.93575 7.34446C5.76873 7.23286 5.63856 7.07424 5.56168 6.88866C5.48481 6.70308 5.4647 6.49887 5.50389 6.30186C5.54308 6.10485 5.63981 5.92388 5.78184 5.78184C5.92388 5.63981 6.10485 5.54308 6.30186 5.50389C6.49887 5.4647 6.70308 5.48481 6.88866 5.56168C7.07424 5.63856 7.23286 5.76873 7.34446 5.93575C7.45606 6.10277 7.51562 6.29913 7.51562 6.5C7.51562 6.76936 7.40862 7.02769 7.21816 7.21816C7.02769 7.40862 6.76936 7.51562 6.5 7.51562Z" fill="var(--fill-0, #CCCCCC)"/>
</g>
</svg>
