<svg preserveAspectRatio="none" width="100%" height="100%" overflow="visible" style="display: block;" viewBox="0 0 49.2 49.2" fill="none" xmlns="http://www.w3.org/2000/svg">
<g id="image 16 [Vectorized]">
<path id="Vector" d="M20.0141 8.13534C21.8634 8.06351 24.0658 8.14946 25.9453 8.12813C27.1446 8.11449 29.5603 8.06538 30.6818 8.16522C30.9059 8.50703 31.8046 9.30466 32.1529 9.63262L34.5431 11.8918L39.1802 16.2868C39.6248 16.7026 40.0398 17.1359 40.4951 17.5408L39.2302 17.5381C32.4255 17.54 25.5299 17.6014 18.735 17.5285C18.7816 14.7354 18.6571 11.9193 18.7841 9.13121C18.8125 8.509 19.4751 8.19463 20.0141 8.13534Z" fill="var(--fill-0, #FEFEFE)"/>
<path id="Vector_2" d="M8.71609 31.6668C11.1927 31.721 13.9318 31.6619 16.4317 31.662L30.4561 31.6581L30.4434 37.6303C30.4433 38.4299 30.4956 39.3537 30.4303 40.1461C30.4202 40.2673 30.1897 40.5788 30.1072 40.6957C29.9507 40.839 29.7338 41.0025 29.5211 41.0193C28.3651 41.1106 27.0956 41.0674 25.9352 41.0678L18.5629 41.0678C18.1848 40.6113 17.6739 40.1564 17.2401 39.7408C16.488 39.0133 15.728 38.2939 14.9602 37.5828L8.71609 31.6668Z" fill="var(--fill-0, #FEFEFE)"/>
<path id="Vector_3" d="M17.4697 8.77959C17.4844 8.8026 17.5024 8.83086 17.5239 8.86434C17.5461 10.3683 17.5398 12.3414 17.5401 13.8059L17.5331 30.4484L12.1683 30.4565C11.2314 30.4598 10.1914 30.4961 9.26305 30.4133C8.96603 30.3867 8.77269 30.2935 8.53462 30.1211C8.47297 30.0653 8.41479 30.0057 8.36035 29.9428C8.03892 29.5713 8.13011 28.1533 8.13174 27.6152L8.13463 24.8676L8.1329 21.0634C8.13208 20.2518 8.11051 19.3262 8.16552 18.5244C8.54956 18.2426 9.25532 17.4511 9.59837 17.0868L12.121 14.4084L16.0608 10.2568C16.5065 9.78108 17.0608 9.26265 17.4697 8.77959Z" fill="var(--fill-0, #FEFEFE)"/>
<path id="Vector_4" d="M31.6676 18.7582C34.2117 18.6481 36.865 18.82 39.417 18.7353C41.4076 18.6692 41.0801 20.1736 41.0736 21.6032L41.0714 24.1837C41.072 26.1639 41.1423 28.6877 41.0542 30.624C39.4555 32.1684 37.778 34.0369 36.2196 35.6641C34.6886 37.246 33.2083 38.9037 31.6599 40.4791L31.6676 18.7582Z" fill="var(--fill-0, #FEFEFE)"/>
</g>
</svg>
