<svg preserveAspectRatio="none" width="100%" height="100%" overflow="visible" style="display: block;" viewBox="0 0 8 8" fill="none" xmlns="http://www.w3.org/2000/svg">
<path id="Vector" d="M8 0.631534V6.10483C8 6.27232 7.93347 6.43295 7.81505 6.55139C7.69663 6.66983 7.53602 6.73636 7.36855 6.73636C7.20108 6.73636 7.04047 6.66983 6.92205 6.55139C6.80363 6.43295 6.7371 6.27232 6.7371 6.10483V2.15774L1.07982 7.81471C0.961198 7.93335 0.800308 8 0.632546 8C0.464785 8 0.303894 7.93335 0.185269 7.81471C0.0666432 7.69607 0 7.53515 0 7.36737C0 7.19959 0.0666432 7.03867 0.185269 6.92003L5.84254 1.26307H1.89597C1.7285 1.26307 1.56789 1.19653 1.44947 1.0781C1.33105 0.95966 1.26452 0.799027 1.26452 0.631534C1.26452 0.464041 1.33105 0.303408 1.44947 0.184972C1.56789 0.0665363 1.7285 0 1.89597 0H7.36855C7.53602 0 7.69663 0.0665363 7.81505 0.184972C7.93347 0.303408 8 0.464041 8 0.631534Z" fill="var(--fill-0, black)"/>
</svg>
