<svg preserveAspectRatio="none" width="100%" height="100%" overflow="visible" style="display: block;" viewBox="0 0 32 44" fill="none" xmlns="http://www.w3.org/2000/svg">
<g id="Frame 1" clip-path="url(#clip0_88_8385)">
<path id="Vector" d="M4.45962 2.83245C4.962 3.04443 5.45834 3.25628 5.98705 3.38791C8.47041 4.00624 11.183 3.54461 13.5057 2.52298C14.3411 2.1555 17.2335 0.648335 17.6731 0C18.102 0.704492 18.7198 1.31355 19.3159 1.86949C21.0179 3.45696 23.0626 4.49125 25.246 5.16617C27.4474 5.84667 29.7121 5.98561 31.9967 5.99826L31.9879 16.4643C31.9882 18.8333 32.0693 21.2521 31.8074 23.6051C31.7306 24.2948 31.4322 25.238 31.2026 25.9093C29.7905 30.0358 26.663 33.34 23.3383 35.9215C22.834 36.313 22.3635 36.7022 21.8183 37.0299C21.6739 37.1823 20.8829 37.6816 20.6637 37.8237L18.589 39.1743C18.4011 39.1815 16.9443 40.0205 16.6068 40.2125C15.985 40.5661 14.6807 41.0398 14.1638 41.4533C13.1868 40.8606 12.1276 40.3877 11.1735 39.7335C10.8669 39.5232 10.4024 39.1943 10.0861 39.0291C9.95347 38.8946 9.4889 38.5769 9.32021 38.4428C8.79305 38.0237 8.19103 37.6206 7.67001 37.1951C6.14926 35.9538 4.71344 34.4929 3.49114 32.9428C2.50123 31.7374 1.79421 30.4114 1.1564 28.9843C0.559945 27.6497 0.15816 26.0772 0.0584731 24.6069C-0.0327054 23.2622 0.00991977 21.8231 0.0101554 20.4645L0.011283 13.5429L0.00770682 8.89317C0.00678766 8.12287 -0.00835544 7.30139 0.0304154 6.53248C0.038684 6.36852 0.125162 6.32191 0.253486 6.2177C1.44022 5.13092 2.83804 4.17211 4.06377 3.12729C4.18874 3.02076 4.32287 2.92226 4.45962 2.83245Z" fill="var(--fill-0, #FE5200)"/>
<path id="Vector_2" d="M4.45963 2.83245C4.962 3.04443 5.45835 3.25628 5.98706 3.38791C8.47042 4.00624 11.183 3.54461 13.5057 2.52297C14.3411 2.1555 17.2335 0.648335 17.6731 3.17551e-07C18.102 0.704492 18.7198 1.31355 19.3159 1.86949C21.0179 3.45696 23.0626 4.49125 25.246 5.16617C27.4474 5.84667 29.7121 5.9856 31.9967 5.99826L31.9879 16.4643C31.9882 18.8332 32.0694 21.2521 31.8074 23.6051C31.7306 24.2948 31.4322 25.238 31.2026 25.9093C29.7905 30.0358 26.663 33.34 23.3383 35.9215C22.834 36.313 22.3635 36.7022 21.8183 37.0299C21.6239 37.0151 21.3854 37.3033 21.1972 37.3404C22.4766 35.9047 23.8693 34.566 24.9458 32.9824C27.0106 29.9451 28.2785 26.2545 28.1962 22.5241C28.1795 21.7652 28.196 20.9758 28.1961 20.2101L28.1963 14.5566C28.1961 13.7906 28.1402 9.82409 28.2715 9.36294L28.1458 9.26807C27.9054 9.36522 27.4798 9.35979 27.2178 9.37296C25.4876 9.47885 23.8487 9.12822 22.1693 8.77004C19.2614 8.14989 16.4386 6.51392 14.5696 4.10418C14.3662 3.84196 13.9605 3.37195 13.8386 3.0853C9.90161 6.8986 5.57228 6.97858 0.502444 6.45238L0.25349 6.21769C1.44022 5.13092 2.83804 4.17211 4.06377 3.12729C4.18875 3.02076 4.32287 2.92226 4.45963 2.83245Z" fill="var(--fill-0, #B03300)"/>
<path id="Vector_3" d="M28.1458 9.26807C28.2921 8.88348 29.3727 8.1091 29.7286 7.8529L29.9178 7.88116C29.4412 8.39451 28.8282 8.75752 28.2715 9.36295L28.1458 9.26807Z" fill="var(--fill-0, #DE4200)"/>
<path id="Vector_4" d="M29.7286 7.8529C29.8934 7.70087 30.2091 7.37063 30.3969 7.30801L30.4707 7.3326L30.478 7.37131C30.3501 7.48562 30.0229 7.76525 29.9178 7.88115L29.7286 7.8529Z" fill="var(--fill-0, #C87224)"/>
<path id="Vector_5" d="M13.8005 5.8618C13.7485 5.83677 15.2091 7.4996 15.4259 7.69441C18.5685 10.5185 22.1278 11.2918 26.2172 11.1386C26.0881 15.567 26.3243 20.1335 26.1379 24.5646C26.1143 25.1255 25.4389 27.5268 25.212 28.1244C24.1855 30.8279 22.2894 33.281 20.1248 35.1115C18.3724 36.596 16.563 37.5663 14.5142 38.5206L14.0859 38.7393C13.7544 38.5385 13.3794 38.3541 13.0416 38.1686C10.5198 36.7776 8.21527 34.9931 6.19787 32.8979C5.39519 32.0643 4.45845 30.7535 3.83512 29.761C3.54315 29.2961 3.33221 28.5808 3.0168 28.0899C2.55077 27.3848 2.5167 26.6227 2.33546 25.8481C1.97637 24.3137 1.99684 23.0291 1.99722 21.4669L1.99803 17.4085L1.99247 8.61079C2.58892 8.63191 3.24388 8.75252 3.84933 8.79455C7.75724 9.06595 10.7451 8.56861 13.8005 5.8618Z" fill="var(--fill-0, #DE4200)"/>
<path id="Vector_6" d="M13.905 13.2928C13.7378 13.2755 13.5941 13.2897 13.4834 13.1822C13.5916 13.07 14.1057 13.0527 14.2658 13.0557C16.3021 13.0945 17.9045 13.8065 19.2874 15.3492C20.8341 17.0747 21.5266 19.1004 21.5176 21.4123C21.5078 23.9526 20.5519 25.7556 18.8219 27.4872C18.2389 28.0706 18.0049 28.1596 17.457 28.6142C17.2596 28.8124 16.3505 29.3574 16.0834 29.3268C16.0106 29.3272 15.6578 29.4672 15.5828 29.5019C12.9881 30.7005 10.3284 30.0702 8.25472 28.0272C4.73426 24.5007 4.86479 18.228 8.62011 14.9243C10.6116 13.1723 11.522 13.3882 13.905 13.2928Z" fill="var(--fill-0, #FE5200)"/>
<path id="Vector_7" d="M13.905 13.2928C13.7378 13.2755 13.5941 13.2897 13.4834 13.1822C13.5916 13.07 14.1057 13.0527 14.2658 13.0557C16.3021 13.0945 17.9045 13.8065 19.2874 15.3492C20.8341 17.0747 21.5266 19.1004 21.5176 21.4123C21.5078 23.9526 20.5519 25.7556 18.8219 27.4872C18.2389 28.0706 18.0049 28.1596 17.457 28.6142L17.456 28.4305C21.1769 25.2116 21.4489 19.1818 18.1575 15.5283C17.1064 14.3617 15.4855 13.332 13.905 13.2928Z" fill="var(--fill-0, #722100)"/>
<path id="Vector_8" d="M16.0834 29.3268C16.4472 29.1774 17.1615 28.6811 17.456 28.4305L17.457 28.6142C17.2596 28.8124 16.3504 29.3574 16.0834 29.3268Z" fill="var(--fill-0, #B03300)"/>
<path id="Vector_9" d="M15.6775 17.8296C16.0447 18.034 16.8134 19.226 17.3086 19.5848C15.6757 21.4747 13.8841 23.5603 12.2115 25.3833C11.6762 24.9159 11.0461 24.2282 10.5587 23.7024C10.2364 23.3685 9.90693 23.0422 9.57043 22.7236C8.87836 22.0637 8.85426 21.9786 9.52173 21.2002C9.81401 20.8594 10.0868 20.5015 10.4105 20.1829C10.9409 20.657 11.6656 21.4257 12.1712 21.9527C12.5004 21.3997 13.0859 20.8787 13.4989 20.3811C14.2081 19.5264 14.9913 18.6977 15.6775 17.8296Z" fill="var(--fill-0, #3B1200)"/>
</g>
<defs>
<clipPath id="clip0_88_8385">
<rect width="32" height="44" fill="white"/>
</clipPath>
</defs>
</svg>
