<svg preserveAspectRatio="none" width="100%" height="100%" overflow="visible" style="display: block;" viewBox="0 0 26 26" fill="none" xmlns="http://www.w3.org/2000/svg">
<g id="Wrench">
<path id="Vector" d="M23.0303 7.00781C22.981 6.886 22.9029 6.77795 22.8027 6.69295C22.7025 6.60794 22.5832 6.54851 22.455 6.51975C22.3267 6.49099 22.1934 6.49376 22.0665 6.52782C21.9396 6.56188 21.8228 6.62622 21.7263 6.71531L17.6333 10.4924L15.8834 10.1166L15.5076 8.36672L19.2847 4.27375C19.3738 4.17716 19.4381 4.06039 19.4722 3.93348C19.5062 3.80656 19.509 3.67327 19.4803 3.54505C19.4515 3.41683 19.3921 3.29749 19.3071 3.19728C19.222 3.09707 19.114 3.01897 18.9922 2.96969C17.882 2.52061 16.6786 2.35105 15.4876 2.47591C14.2966 2.60077 13.1545 3.01622 12.1616 3.68576C11.1687 4.3553 10.3555 5.25843 9.7933 6.31582C9.23114 7.3732 8.93726 8.55247 8.9375 9.75C8.93619 10.7612 9.14364 11.7619 9.54688 12.6892L3.4318 17.9766C3.41656 17.9887 3.40234 18.003 3.38813 18.0162C2.77856 18.6257 2.43611 19.4525 2.43611 20.3145C2.43611 20.7414 2.52019 21.164 2.68353 21.5584C2.84688 21.9527 3.0863 22.3111 3.38813 22.6129C3.68995 22.9147 4.04827 23.1541 4.44262 23.3175C4.83697 23.4808 5.25964 23.5649 5.68648 23.5649C6.54854 23.5649 7.37528 23.2225 7.98484 22.6129C7.99805 22.5997 8.01227 22.5845 8.02445 22.5702L13.3108 16.4531C14.4243 16.9419 15.6422 17.1453 16.8542 17.0448C18.0662 16.9443 19.2339 16.5432 20.2518 15.8777C21.2697 15.2121 22.1055 14.3032 22.6835 13.2333C23.2616 12.1634 23.5637 10.9661 23.5625 9.75C23.5641 8.81012 23.3833 7.87886 23.0303 7.00781ZM16.25 15.4375C15.2883 15.4362 14.3425 15.1916 13.5007 14.7266C13.3376 14.6365 13.1485 14.6052 12.9651 14.6379C12.7817 14.6706 12.6151 14.7654 12.4932 14.9063L6.81586 21.4815C6.50863 21.7734 6.09954 21.9337 5.6758 21.9283C5.25206 21.9228 4.84721 21.7521 4.54756 21.4524C4.24791 21.1528 4.07716 20.7479 4.07174 20.3242C4.06631 19.9005 4.22663 19.4914 4.51852 19.1841L11.0886 13.5078C11.2298 13.3859 11.3247 13.2191 11.3574 13.0355C11.3902 12.8518 11.3587 12.6625 11.2684 12.4993C10.7504 11.5625 10.5074 10.4986 10.5671 9.42985C10.6269 8.3611 10.987 7.33091 11.6061 6.4577C12.2252 5.5845 13.0782 4.90374 14.067 4.49368C15.0557 4.08363 16.1402 3.96093 17.1955 4.13969L14.0268 7.57352C13.9386 7.66916 13.8747 7.78458 13.8404 7.91006C13.8061 8.03554 13.8025 8.16742 13.8298 8.29461L14.4046 10.9687C14.4375 11.1217 14.5138 11.2619 14.6244 11.3725C14.7351 11.4831 14.8753 11.5595 15.0282 11.5923L17.7044 12.1672C17.8316 12.1945 17.9634 12.1908 18.0889 12.1565C18.2144 12.1222 18.3298 12.0583 18.4255 11.9702L21.8593 8.80141C21.9962 9.61696 21.9538 10.4525 21.735 11.2501C21.5163 12.0476 21.1264 12.7878 20.5926 13.4194C20.0587 14.051 19.3937 14.5587 18.6438 14.9072C17.8938 15.2557 17.077 15.4367 16.25 15.4375Z" fill="var(--fill-0, black)"/>
</g>
</svg>
