<svg preserveAspectRatio="none" width="100%" height="100%" overflow="visible" style="display: block;" viewBox="0 0 18 18" fill="none" xmlns="http://www.w3.org/2000/svg">
<g id="Eye">
<path id="Vector" d="M17.6484 8.65758C17.6224 8.60062 17.0065 7.23305 15.6459 5.8725C13.8255 4.05492 11.5313 3.09375 9 3.09375C6.46875 3.09375 4.17445 4.05492 2.35617 5.8725C0.995625 7.23305 0.379688 8.60062 0.351563 8.65758C0.303928 8.76558 0.279326 8.88232 0.279326 9.00035C0.279326 9.11839 0.303928 9.23513 0.351563 9.34313C0.377578 9.40078 0.993516 10.7677 2.35477 12.1282C4.17445 13.9458 6.46875 14.9062 9 14.9062C11.5313 14.9062 13.8255 13.9458 15.6431 12.1282C17.0044 10.7677 17.6203 9.40078 17.6463 9.34313C17.6943 9.23527 17.7193 9.11861 17.7196 9.00057C17.72 8.88254 17.6957 8.76572 17.6484 8.65758ZM14.4098 10.9779C12.9002 12.4643 11.0805 13.2188 9 13.2188C6.91945 13.2188 5.09977 12.4643 3.59227 10.9772C2.99907 10.3902 2.48881 9.72503 2.07563 9C2.48893 8.27526 2.99918 7.6103 3.59227 7.02352C5.10047 5.5357 6.91945 4.78125 9 4.78125C11.0805 4.78125 12.8995 5.5357 14.4077 7.02352C15.0009 7.61025 15.5111 8.27522 15.9244 9C15.5111 9.72499 15.0009 10.3902 14.4077 10.9772L14.4098 10.9779ZM9 5.90625C8.38811 5.90625 7.78997 6.0877 7.2812 6.42764C6.77244 6.76759 6.37591 7.25076 6.14175 7.81607C5.90759 8.38138 5.84632 9.00343 5.9657 9.60356C6.08507 10.2037 6.37972 10.7549 6.81239 11.1876C7.24506 11.6203 7.79631 11.9149 8.39644 12.0343C8.99657 12.1537 9.61862 12.0924 10.1839 11.8583C10.7492 11.6241 11.2324 11.2276 11.5724 10.7188C11.9123 10.21 12.0937 9.61189 12.0937 9C12.0928 8.17977 11.7666 7.39341 11.1866 6.81342C10.6066 6.23343 9.82023 5.90718 9 5.90625ZM9 10.4062C8.72187 10.4062 8.44999 10.3238 8.21873 10.1693C7.98747 10.0147 7.80723 9.79511 7.70079 9.53815C7.59436 9.28119 7.56651 8.99844 7.62077 8.72565C7.67503 8.45287 7.80896 8.2023 8.00563 8.00563C8.2023 7.80896 8.45287 7.67503 8.72565 7.62077C8.99844 7.56651 9.28119 7.59436 9.53815 7.70079C9.79511 7.80723 10.0147 7.98747 10.1693 8.21873C10.3238 8.44999 10.4062 8.72187 10.4062 9C10.4062 9.37296 10.2581 9.73065 9.99437 9.99437C9.73065 10.2581 9.37296 10.4062 9 10.4062Z" fill="var(--fill-0, white)"/>
</g>
</svg>
