<svg preserveAspectRatio="none" width="100%" height="100%" overflow="visible" style="display: block;" viewBox="0 0 24 25" fill="none" xmlns="http://www.w3.org/2000/svg">
<g id="Frame 3">
<path id="Symbol" d="M23 12.04V23.08C23 23.3292 22.9093 23.5448 22.7279 23.7269C22.5464 23.909 22.3316 24 22.0833 24V24H15.6667C15.4184 24 15.2036 23.909 15.0221 23.7269C14.8407 23.5448 14.75 23.3292 14.75 23.08V23.08V17.1C14.75 16.9658 14.707 16.8556 14.6211 16.7694C14.5352 16.6831 14.4253 16.64 14.2917 16.64V16.64H9.70833C9.57465 16.64 9.46484 16.6831 9.37891 16.7694C9.29297 16.8556 9.25 16.9658 9.25 17.1V17.1V23.08C9.25 23.3292 9.15929 23.5448 8.97786 23.7269C8.79644 23.909 8.5816 24 8.33333 24V24H1.91667C1.6684 24 1.45356 23.909 1.27214 23.7269C1.09071 23.5448 1 23.3292 1 23.08V23.08V12.04C1 11.7908 1.04774 11.5513 1.14323 11.3213C1.23872 11.0913 1.3724 10.8996 1.54427 10.7463L10.7109 1.54625C10.8637 1.37375 11.0547 1.23958 11.2839 1.14375C11.513 1.04792 11.7517 1 12 1C12.2483 1 12.487 1.04792 12.7161 1.14375C12.9453 1.23958 13.1363 1.37375 13.2891 1.54625L22.4557 10.7463C22.6276 10.8996 22.7613 11.0913 22.8568 11.3213C22.9523 11.5513 23 11.7908 23 12.04V12.04V12.04V12.04" fill="var(--fill-0, #111827)"/>
</g>
</svg>
