<svg preserveAspectRatio="none" width="100%" height="100%" overflow="visible" style="display: block;" viewBox="0 0 28 25" fill="none" xmlns="http://www.w3.org/2000/svg">
<g id="Frame 3">
<path id="Symbol" d="M12.8032 16.375C13.7124 15.7563 14.4361 14.9547 14.9742 13.9703C15.5123 12.9859 15.7813 11.9125 15.7813 10.75C15.7813 9.8125 15.605 8.93125 15.2525 8.10625C14.8999 7.3 14.4221 6.59219 13.8191 5.98281C13.216 5.37344 12.5063 4.89063 11.6899 4.53438C10.892 4.17812 10.0292 4 9.10139 4C8.17363 4 7.3108 4.17812 6.51292 4.53438C5.69649 4.89063 4.98675 5.37344 4.3837 5.98281C3.78065 6.59219 3.30285 7.3 2.9503 8.10625C2.59775 8.93125 2.42147 9.8125 2.42147 10.75C2.42147 11.9125 2.69052 12.9859 3.22863 13.9703C3.76673 14.9547 4.48111 15.7469 5.37177 16.3469L5.3996 16.375C4.30484 16.7875 3.31213 17.3547 2.42147 18.0766C1.53082 18.7984 0.779324 19.6281 0.166998 20.5656L0.139165 20.6219C0.102054 20.6781 0.0695825 20.7484 0.0417495 20.8328C0.0139165 20.9172 0 21.0063 0 21.1C0 21.3625 0.083499 21.5781 0.250497 21.7469C0.417495 21.9156 0.630881 22 0.890656 22C1.0391 22 1.17826 21.9625 1.30815 21.8875C1.43804 21.8125 1.54937 21.7188 1.64215 21.6063V21.5781C2.03181 20.9594 2.49569 20.4063 3.0338 19.9188C3.5719 19.4125 4.16103 18.9813 4.80119 18.625C5.44135 18.2688 6.12326 17.9875 6.84692 17.7813C7.57058 17.5938 8.32207 17.5 9.10139 17.5C9.88072 17.5 10.6322 17.5938 11.3559 17.7813C12.0795 17.9875 12.7614 18.2641 13.4016 18.6109C14.0418 18.9578 14.6216 19.3844 15.1412 19.8906C15.6793 20.3969 16.1524 20.95 16.5606 21.55V21.5781C16.6534 21.7094 16.7647 21.8125 16.8946 21.8875C17.0245 21.9625 17.1637 22 17.3121 22C17.5533 22 17.7621 21.9109 17.9384 21.7328C18.1146 21.5547 18.2028 21.3438 18.2028 21.1C18.2028 21.0063 18.1889 20.9172 18.161 20.8328C18.1332 20.7484 18.1007 20.6688 18.0636 20.5938V20.6219C17.4327 19.6469 16.6766 18.7984 15.7952 18.0766C14.9139 17.3547 13.9443 16.7969 12.8867 16.4031L12.8032 16.375V16.375V16.375M4.20278 10.75C4.20278 9.38125 4.68058 8.21406 5.63618 7.24844C6.59178 6.28281 7.74685 5.8 9.10139 5.8C10.4559 5.8 11.611 6.28281 12.5666 7.24844C13.5222 8.21406 14 9.38125 14 10.75C14 12.1188 13.5222 13.2859 12.5666 14.2516C11.611 15.2172 10.4559 15.7 9.10139 15.7V15.7C7.74685 15.7 6.59178 15.2172 5.63618 14.2516C4.68058 13.2859 4.20278 12.1188 4.20278 10.75V10.75V10.75M27.6103 21.8594C27.5361 21.8969 27.4573 21.9297 27.3738 21.9578C27.2903 21.9859 27.2021 22 27.1093 22C26.9609 22 26.8217 21.9625 26.6919 21.8875C26.562 21.8125 26.4506 21.7188 26.3579 21.6063V21.5781C25.9682 20.9594 25.5043 20.4063 24.9662 19.9188C24.4281 19.4125 23.839 18.9813 23.1988 18.625C22.5587 18.2688 21.8767 17.9875 21.1531 17.7813C20.4294 17.5938 19.6779 17.5 18.8986 17.5V17.5V17.5V17.5C18.6574 17.5 18.4486 17.4109 18.2724 17.2328C18.0961 17.0547 18.008 16.8438 18.008 16.6C18.008 16.3563 18.0961 16.1453 18.2724 15.9672C18.4486 15.7891 18.6574 15.7 18.8986 15.7V15.7C20.2531 15.7 21.4082 15.2172 22.3638 14.2516C23.3194 13.2859 23.7972 12.1188 23.7972 10.75C23.7972 9.38125 23.3194 8.21406 22.3638 7.24844C21.4082 6.28281 20.2531 5.8 18.8986 5.8C18.5646 5.8 18.2445 5.83281 17.9384 5.89844C17.6322 5.96406 17.3307 6.05313 17.0338 6.16563H17.0895C17.0338 6.18438 16.9735 6.19844 16.9086 6.20781C16.8436 6.21719 16.7833 6.22188 16.7276 6.22188C16.4864 6.22188 16.2777 6.13281 16.1014 5.95469C15.9251 5.77656 15.837 5.56563 15.837 5.32188C15.837 5.13438 15.8926 4.96563 16.004 4.81563C16.1153 4.66563 16.2545 4.55313 16.4215 4.47813V4.47813C16.7926 4.32812 17.1869 4.21094 17.6044 4.12656C18.0219 4.04219 18.4533 4 18.8986 4C19.8078 4 20.6706 4.17812 21.4871 4.53438C22.3035 4.89063 23.0133 5.37344 23.6163 5.98281C24.2194 6.59219 24.6972 7.30938 25.0497 8.13438C25.4023 8.94063 25.5785 9.8125 25.5785 10.75C25.5785 11.9125 25.3095 12.9859 24.7714 13.9703C24.2333 14.9547 23.5189 15.7469 22.6282 16.3469L22.6004 16.375C23.6952 16.7875 24.6879 17.3547 25.5785 18.0766C26.4692 18.7984 27.2207 19.6281 27.833 20.5656L27.8608 20.6219C27.8979 20.6781 27.9304 20.7484 27.9583 20.8328C27.9861 20.9172 28 21.0063 28 21.1C28 21.25 27.9629 21.3906 27.8887 21.5219C27.8144 21.6531 27.7217 21.7656 27.6103 21.8594V21.8594V21.8594V21.8594" fill="var(--fill-0, #6B7280)"/>
</g>
</svg>
