<svg preserveAspectRatio="none" width="100%" height="100%" overflow="visible" style="display: block;" viewBox="0 0 24 25" fill="none" xmlns="http://www.w3.org/2000/svg">
<g id="Frame 3">
<path id="Symbol" d="M21.7571 18.3026L18.3026 21.7571C18.2126 21.8291 18.1181 21.8875 18.0192 21.9325C17.9202 21.9775 17.8078 22 17.6818 22C17.4479 22 17.2455 21.9145 17.0746 21.7436C16.9036 21.5727 16.8182 21.3703 16.8182 21.1364C16.8182 21.0104 16.8407 20.898 16.8857 20.799C16.9306 20.7 16.9891 20.6056 17.0611 20.5156L19.0582 18.5455H3.86364C3.62973 18.5455 3.42732 18.46 3.25639 18.2891C3.08546 18.1181 3 17.9157 3 17.6818C3 17.4479 3.08546 17.2455 3.25639 17.0746C3.42732 16.9036 3.62973 16.8182 3.86364 16.8182H19.0582L17.0611 14.848C16.9891 14.758 16.9306 14.6636 16.8857 14.5646C16.8407 14.4657 16.8182 14.3532 16.8182 14.2273C16.8182 13.9934 16.9036 13.791 17.0746 13.62C17.2455 13.4491 17.4479 13.3636 17.6818 13.3636C17.8078 13.3636 17.9202 13.3861 18.0192 13.4311C18.1181 13.4761 18.2126 13.5346 18.3026 13.6065L21.7571 17.0611C21.8291 17.151 21.8875 17.2455 21.9325 17.3445C21.9775 17.4434 22 17.5559 22 17.6818C22 17.8078 21.9775 17.9202 21.9325 18.0192C21.8875 18.1181 21.8291 18.2126 21.7571 18.3026ZM6.69744 11.3935C6.78741 11.4654 6.88187 11.5239 6.98082 11.5689C7.07978 11.6139 7.19223 11.6364 7.31818 11.6364C7.55208 11.6364 7.7545 11.5509 7.92543 11.38C8.09635 11.209 8.18182 11.0066 8.18182 10.7727C8.18182 10.6468 8.15933 10.5343 8.11435 10.4354C8.06937 10.3364 8.01089 10.242 7.93892 10.152L5.94176 8.18182H21.1364C21.3703 8.18182 21.5727 8.09635 21.7436 7.92543C21.9145 7.7545 22 7.55208 22 7.31818C22 7.08428 21.9145 6.88187 21.7436 6.71094C21.5727 6.54001 21.3703 6.45455 21.1364 6.45455H5.94176L7.93892 4.48438C8.01089 4.39441 8.06937 4.29995 8.11435 4.20099C8.15933 4.10204 8.18182 3.98958 8.18182 3.86364C8.18182 3.62973 8.09635 3.42732 7.92543 3.25639C7.7545 3.08546 7.55208 3 7.31818 3C7.19223 3 7.07978 3.02249 6.98082 3.06747C6.88187 3.11245 6.78741 3.17093 6.69744 3.2429L3.2429 6.69744C3.17093 6.78741 3.11245 6.88187 3.06747 6.98082C3.02249 7.07978 3 7.19223 3 7.31818C3 7.44413 3.02249 7.55658 3.06747 7.65554C3.11245 7.7545 3.17093 7.84896 3.2429 7.93892L6.69744 11.3935Z" fill="var(--fill-0, #6B7280)"/>
</g>
</svg>
