<svg preserveAspectRatio="none" width="100%" height="100%" overflow="visible" style="display: block;" viewBox="0 0 14.85 14.85" fill="none" xmlns="http://www.w3.org/2000/svg">
<path id="Icon" d="M9.7125 4.3125C9.5625 3.9375 9.34062 3.64375 9.04688 3.43125C8.75313 3.21875 8.4 3.1125 7.9875 3.1125C7.7625 3.1125 7.54375 3.14375 7.33125 3.20625C7.11875 3.26875 6.925 3.3875 6.75 3.5625L5.6625 2.475C5.8375 2.3 6.075 2.14063 6.375 1.99688C6.675 1.85313 6.95 1.7625 7.2 1.725V0.15H8.7V1.6875C9.2625 1.8 9.75625 2.02813 10.1812 2.37188C10.6062 2.71563 10.925 3.1625 11.1375 3.7125L9.7125 4.3125V4.3125M13.8 14.85L10.35 11.4C10.1625 11.5875 9.90625 11.7406 9.58125 11.8594C9.25625 11.9781 8.9625 12.05 8.7 12.075V13.65H7.2V12.0375C6.5 11.8625 5.91563 11.5438 5.44688 11.0813C4.97813 10.6188 4.6375 10.0375 4.425 9.3375L5.925 8.7375C6.075 9.2625 6.32812 9.7125 6.68437 10.0875C7.04062 10.4625 7.5125 10.65 8.1 10.65C8.325 10.65 8.53125 10.6219 8.71875 10.5656C8.90625 10.5094 9.0875 10.425 9.2625 10.3125L0 1.05L1.05 0L14.85 13.8L13.8 14.85V14.85" fill="var(--fill-0, #BA1A1A)"/>
</svg>
