<svg preserveAspectRatio="none" width="100%" height="100%" overflow="visible" style="display: block;" viewBox="0 0 20.1196 20.1253" fill="none" xmlns="http://www.w3.org/2000/svg">
<path id="Vector" d="M19.7045 0.420708C19.5237 0.24006 19.298 0.110868 19.0507 0.046437C18.8034 -0.0179937 18.5434 -0.0153329 18.2975 0.0541451H18.284L1.03942 5.28664C0.759461 5.36733 0.510629 5.53118 0.325897 5.75647C0.141164 5.98177 0.029253 6.25789 0.00499303 6.54823C-0.0192669 6.83857 0.0452697 7.12943 0.190051 7.38226C0.334832 7.63509 0.553022 7.83796 0.815708 7.96399L8.44524 11.6799L12.1558 19.305C12.2712 19.5513 12.4547 19.7594 12.6846 19.9047C12.9145 20.0501 13.1811 20.1266 13.4531 20.1252C13.4945 20.1252 13.5358 20.1234 13.5771 20.1198C13.8672 20.0964 14.1432 19.9847 14.368 19.7999C14.5929 19.615 14.7558 19.3658 14.8349 19.0857L20.0638 1.84114C20.0638 1.83665 20.0638 1.83215 20.0638 1.82766C20.1342 1.58235 20.138 1.32273 20.0749 1.07547C20.0117 0.828206 19.8839 0.602213 19.7045 0.420708ZM13.4612 18.6743L13.4567 18.6868V18.6806L9.85758 11.2864L14.1701 6.97391C14.2992 6.83802 14.3701 6.65708 14.3677 6.46965C14.3653 6.28223 14.2898 6.10316 14.1572 5.97062C14.0247 5.83808 13.8456 5.76256 13.6582 5.76016C13.4708 5.75776 13.2898 5.82868 13.154 5.95778L8.84145 10.2703L1.44461 6.67114H1.43832H1.4509L18.6874 1.43774L13.4612 18.6743Z" fill="var(--fill-0, black)"/>
</svg>
