<svg preserveAspectRatio="none" width="100%" height="100%" overflow="visible" style="display: block;" viewBox="0 0 22 22" fill="none" xmlns="http://www.w3.org/2000/svg">
<g id="icon">
<path id="Vector" d="M3.66667 7.33333H6.41667L8.25 4.58333H13.75L15.5833 7.33333H18.3333C18.5764 7.33333 18.8096 7.42991 18.9815 7.60182C19.1534 7.77373 19.25 8.00688 19.25 8.25V16.5C19.25 16.7431 19.1534 16.9763 18.9815 17.1482C18.8096 17.3201 18.5764 17.4167 18.3333 17.4167H3.66667C3.42355 17.4167 3.19039 17.3201 3.01849 17.1482C2.84658 16.9763 2.75 16.7431 2.75 16.5V8.25C2.75 8.00688 2.84658 7.77373 3.01849 7.60182C3.19039 7.42991 3.42355 7.33333 3.66667 7.33333Z" stroke="var(--stroke-0, #FF6A00)" stroke-width="1.5" stroke-linejoin="round"/>
<path id="Vector_2" d="M11 14.85C12.62 14.85 13.9333 13.5367 13.9333 11.9167C13.9333 10.2966 12.62 8.98333 11 8.98333C9.37996 8.98333 8.06667 10.2966 8.06667 11.9167C8.06667 13.5367 9.37996 14.85 11 14.85Z" stroke="var(--stroke-0, #FF6A00)" stroke-width="1.5" stroke-linejoin="round"/>
</g>
</svg>
