<svg preserveAspectRatio="none" width="100%" height="100%" overflow="visible" style="display: block;" viewBox="0 0 24 26" fill="none" xmlns="http://www.w3.org/2000/svg">
<g id="Frame 3">
<path id="Symbol" d="M11.5 5.14286C10.3125 5.14286 9.29593 5.5625 8.45028 6.40179C7.60464 7.24107 7.18182 8.25 7.18182 9.42857C7.18182 10.6071 7.60464 11.6161 8.45028 12.4554C9.29593 13.2946 10.3125 13.7143 11.5 13.7143C12.6875 13.7143 13.7041 13.2946 14.5497 12.4554C15.3954 11.6161 15.8182 10.6071 15.8182 9.42857V9.42857C15.8182 8.25 15.3954 7.24107 14.5497 6.40179C13.7041 5.5625 12.6875 5.14286 11.5 5.14286V5.14286V5.14286M11.5 12C10.7803 12 10.1686 11.75 9.66477 11.25C9.16098 10.75 8.90909 10.1429 8.90909 9.42857C8.90909 8.71429 9.16098 8.10714 9.66477 7.60714C10.1686 7.10714 10.7803 6.85714 11.5 6.85714C12.2197 6.85714 12.8314 7.10714 13.3352 7.60714C13.839 8.10714 14.0909 8.71429 14.0909 9.42857V9.42857C14.0909 10.1429 13.839 10.75 13.3352 11.25C12.8314 11.75 12.2197 12 11.5 12V12V12M11.5 0C10.1866 0 8.95407 0.25 7.80256 0.75C6.65104 1.23214 5.64347 1.90179 4.77983 2.75893C3.91619 3.61607 3.24148 4.61607 2.75568 5.75893C2.25189 6.90179 2 8.125 2 9.42857V9.42857C2 10.2679 2.09896 11.1161 2.29687 11.9732C2.49479 12.8482 2.78267 13.7188 3.16051 14.5848C3.53835 15.4509 4.00616 16.3125 4.56392 17.1696C5.13968 18.0446 5.7964 18.9018 6.53409 19.7411C7.19981 20.5089 7.90152 21.2277 8.6392 21.8973C9.37689 22.567 10.1416 23.1964 10.9332 23.7857L11.0142 23.8393C11.0862 23.8929 11.1626 23.933 11.2436 23.9598C11.3246 23.9866 11.41 24 11.5 24C11.59 24 11.6799 23.9866 11.7699 23.9598C11.8598 23.933 11.9408 23.8929 12.0128 23.8393V23.8393C12.8404 23.2321 13.6231 22.5893 14.3608 21.9107C15.0985 21.2321 15.7912 20.5179 16.4389 19.7679L16.4659 19.7411C17.2036 18.9018 17.8603 18.0446 18.4361 17.1696C18.9938 16.3125 19.4616 15.4509 19.8395 14.5848C20.2173 13.7188 20.5052 12.8482 20.7031 11.9732C20.901 11.1161 21 10.2679 21 9.42857C21 8.125 20.7481 6.90179 20.2443 5.75893C19.7585 4.61607 19.0838 3.61607 18.2202 2.75893C17.3565 1.90179 16.349 1.23214 15.1974 0.75C14.0459 0.25 12.8134 0 11.5 0V0V0V0M11.5 22.0714C11.0502 21.7321 10.3935 21.1696 9.52983 20.3839C8.66619 19.5982 7.80256 18.6473 6.93892 17.5313C6.07528 16.4152 5.3286 15.1696 4.69886 13.7946C4.05114 12.4196 3.72727 10.9643 3.72727 9.42857C3.72727 8.35714 3.93419 7.35714 4.34801 6.42857C4.74384 5.48214 5.29261 4.66071 5.99432 3.96429C6.69602 3.26786 7.52367 2.72321 8.47727 2.33036C9.41288 1.91964 10.4205 1.71429 11.5 1.71429C12.5795 1.71429 13.5871 1.91964 14.5227 2.33036C15.4763 2.72321 16.304 3.26786 17.0057 3.96429C17.7074 4.66071 18.2562 5.48214 18.652 6.42857C19.0658 7.35714 19.2727 8.35714 19.2727 9.42857V9.42857C19.2727 10.9643 18.9489 12.4196 18.3011 13.7946C17.6714 15.1696 16.9247 16.4152 16.0611 17.5313C15.1974 18.6473 14.3338 19.5982 13.4702 20.3839C12.6065 21.1518 11.9498 21.7143 11.5 22.0714V22.0714" fill="var(--fill-0, #6B7280)"/>
</g>
</svg>
