<svg preserveAspectRatio="none" width="100%" height="100%" overflow="visible" style="display: block;" viewBox="0 0 18.3164 18.3333" fill="none" xmlns="http://www.w3.org/2000/svg">
<g id="Container">
<path id="Icon" d="M5.5 18.3333C4.99583 18.3333 4.56424 18.1538 4.20521 17.7948C3.84618 17.4358 3.66667 17.0042 3.66667 16.5C3.66667 15.9958 3.84618 15.5642 4.20521 15.2052C4.56424 14.8462 4.99583 14.6667 5.5 14.6667C6.00417 14.6667 6.43576 14.8462 6.79479 15.2052C7.15382 15.5642 7.33333 15.9958 7.33333 16.5C7.33333 17.0042 7.15382 17.4358 6.79479 17.7948C6.43576 18.1538 6.00417 18.3333 5.5 18.3333V18.3333M14.6667 18.3333C14.1625 18.3333 13.7309 18.1538 13.3719 17.7948C13.0128 17.4358 12.8333 17.0042 12.8333 16.5C12.8333 15.9958 13.0128 15.5642 13.3719 15.2052C13.7309 14.8462 14.1625 14.6667 14.6667 14.6667C15.1708 14.6667 15.6024 14.8462 15.9615 15.2052C16.3205 15.5642 16.5 15.9958 16.5 16.5C16.5 17.0042 16.3205 17.4358 15.9615 17.7948C15.6024 18.1538 15.1708 18.3333 14.6667 18.3333V18.3333M4.72083 3.66667L6.92083 8.25H13.3375V8.25V8.25L15.8583 3.66667V3.66667V3.66667H4.72083V3.66667M3.85 1.83333H17.3708C17.7222 1.83333 17.9896 1.98993 18.1729 2.30312C18.3562 2.61632 18.3639 2.93333 18.1958 3.25417L14.9417 9.12083C14.7736 9.42639 14.5483 9.66319 14.2656 9.83125C13.983 9.99931 13.6736 10.0833 13.3375 10.0833H6.50833L5.5 11.9167V11.9167V11.9167H16.5V13.75H5.5C4.8125 13.75 4.29306 13.4483 3.94167 12.8448C3.59028 12.2413 3.575 11.6417 3.89583 11.0458L5.13333 8.8L1.83333 1.83333H0V0H2.97917L3.85 1.83333V1.83333M6.92083 8.25V8.25H13.3375V8.25V8.25V8.25H6.92083V8.25" fill="var(--fill-0, #2563EB)"/>
</g>
</svg>
