<svg preserveAspectRatio="none" width="100%" height="100%" overflow="visible" style="display: block;" viewBox="0 0 32 32" fill="none" xmlns="http://www.w3.org/2000/svg">
<g id="Mastercard Logo [Vectorized]" clip-path="url(#clip0_88_8469)">
<path id="Vector" d="M0 0H32V32H0V0ZM15.6844 10.0391C15.406 9.87353 15.189 9.55806 14.8842 9.36706C13.4369 8.43644 11.5971 7.83163 9.87328 8.22631C7.22344 8.83306 4.44691 11.1433 4.04031 13.9315C3.62853 16.7554 4.37888 19.3882 6.67884 21.2014L6.59619 21.2852C6.60591 21.4423 6.69575 21.5023 6.84859 21.5016C6.89537 21.458 6.89994 21.4561 6.92584 21.3988C9.47675 23.0858 12.2857 23.0756 14.9278 21.6256C15.151 21.503 15.4293 21.0863 15.6443 20.9034L15.6679 20.8836C18.5677 23.4383 22.9654 23.2552 25.6428 20.4683C28.3202 17.6813 28.3269 13.2798 25.658 10.4847C22.9891 7.68969 18.592 7.49322 15.6844 10.0391Z" fill="var(--fill-0, #141A23)"/>
<path id="Vector_2" d="M15.6844 10.0391C18.592 7.49322 22.9891 7.68969 25.658 10.4848C28.3269 13.2798 28.3202 17.6813 25.6428 20.4683C22.9654 23.2552 18.5678 23.4383 15.6679 20.8836C14.11 19.5111 13.2187 17.534 13.2218 15.4576C13.225 13.3813 14.1223 11.4069 15.6844 10.0391Z" fill="var(--fill-0, #FCA127)"/>
<path id="Vector_3" d="M6.67884 21.2014C4.37887 19.3882 3.62853 16.7554 4.04031 13.9315C4.44691 11.1433 7.22344 8.83306 9.87328 8.22631C11.5971 7.83163 13.4369 8.43644 14.8842 9.36706C15.189 9.55806 15.406 9.87353 15.6844 10.0391C14.1223 11.4069 13.225 13.3813 13.2218 15.4576C13.2187 17.534 14.11 19.5111 15.6679 20.8836L15.6443 20.9034C15.4293 21.0863 15.151 21.503 14.9278 21.6256C12.2857 23.0756 9.47675 23.0858 6.92584 21.3988L6.67884 21.2014Z" fill="var(--fill-0, #EC3727)"/>
<path id="Vector_4" d="M6.67884 21.2014L6.92584 21.3988C6.89994 21.4561 6.89537 21.458 6.84859 21.5016C6.69575 21.5023 6.60591 21.4423 6.59619 21.2852L6.67884 21.2014Z" fill="var(--fill-0, #141A23)"/>
</g>
<defs>
<clipPath id="clip0_88_8469">
<rect width="32" height="32" fill="white"/>
</clipPath>
</defs>
</svg>
