<svg preserveAspectRatio="none" width="100%" height="100%" overflow="visible" style="display: block;" viewBox="0 0 13 13" fill="none" xmlns="http://www.w3.org/2000/svg">
<g id="PencilSimple">
<path id="Vector" d="M11.5431 3.72582L9.27418 1.45641C9.19873 1.38094 9.10915 1.32107 9.01056 1.28023C8.91197 1.23939 8.8063 1.21836 8.69959 1.21836C8.59288 1.21836 8.48721 1.23939 8.38862 1.28023C8.29003 1.32107 8.20045 1.38094 8.125 1.45641L1.86316 7.71875C1.78739 7.79392 1.72731 7.88341 1.68642 7.98201C1.64554 8.08061 1.62466 8.18635 1.625 8.29309V10.5625C1.625 10.778 1.7106 10.9847 1.86298 11.137C2.01535 11.2894 2.22201 11.375 2.4375 11.375H4.70691C4.81365 11.3753 4.91939 11.3545 5.01799 11.3136C5.11659 11.2727 5.20608 11.2126 5.28125 11.1368L11.5431 4.875C11.6186 4.79955 11.6784 4.70997 11.7193 4.61138C11.7601 4.51279 11.7811 4.40712 11.7811 4.30041C11.7811 4.1937 11.7601 4.08803 11.7193 3.98944C11.6784 3.89085 11.6186 3.80127 11.5431 3.72582ZM9.75 5.51891L7.48059 3.25L8.69934 2.03125L10.9687 4.30016L9.75 5.51891Z" fill="var(--fill-0, #CCCCCC)"/>
</g>
</svg>
