<svg preserveAspectRatio="none" width="100%" height="100%" overflow="visible" style="display: block;" viewBox="0 0 48.9934 42" fill="none" xmlns="http://www.w3.org/2000/svg">
<g id="Group 3">
<path id="Vector" d="M17.2091 2.08753C18.0603 1.51434 19.5737 0.514277 20.3983 0.0311422C20.8915 -0.257815 23.8719 1.54953 24.56 1.92377C26.2443 2.82915 27.9223 3.74606 29.5941 4.67444C31.0989 3.98353 33.2116 2.73089 34.7267 1.93316C36.4241 2.74403 38.114 3.57046 39.7962 4.41237C39.7896 4.66733 39.7899 5.13198 39.7622 5.36841C39.8274 6.82851 39.7729 8.66767 39.7655 10.1486C39.9028 10.3635 44.8257 12.9636 45.5216 13.3453C47.4232 14.3885 49.1543 14.9181 48.9814 17.6021C48.9351 18.3209 49.1973 19.2248 48.5025 19.6681C47.445 20.343 46.3956 21.1258 45.3157 21.7602C45.1984 21.834 44.9144 21.9558 44.7773 22.019C44.1539 21.8261 43.5773 21.4714 43.0064 21.1527C42.8465 21.3352 42.6687 22.2006 42.5976 22.4851C42.4413 23.1223 41.8537 25.6031 41.6112 26.0662C42.7303 26.8187 44.0735 27.3819 45.1764 28.1688C45.5804 28.4572 45.6781 28.725 45.67 29.1957C45.6837 29.8872 45.7314 30.9384 45.6592 31.5929C45.54 31.7699 45.3823 32.0028 45.2074 32.1204C44.3943 32.6668 43.5487 33.1974 42.723 33.7232L37.8072 36.8424L33.0005 39.8982C31.8995 40.6009 30.1257 41.9816 28.8476 41.9997C28.2391 42.007 27.6378 41.8674 27.0945 41.5932C26.7109 41.4018 26.1648 41.0214 25.7746 40.7938L22.986 39.1868L14.1942 34.0673L5.14742 28.7781C3.75029 27.9608 1.09502 26.5934 0.0127115 25.5554C0.00072658 24.7794 -0.00278222 24.0032 0.00217993 23.2271C0.0279613 23.137 0.068136 22.8384 0.0853011 22.7304C0.695412 22.0422 2.67521 20.9176 3.51282 20.4013C6.84006 18.3506 10.1412 16.234 13.4858 14.2137C14.0075 13.8967 14.5246 13.5721 15.037 13.2403L15.0727 13.0904C15.9786 12.4058 16.9809 12.1823 18.0997 12.3866C18.2493 12.414 18.8416 12.7129 19.0199 12.7919L19.0752 12.7387C19.0435 12.6089 18.8104 12.3117 18.7055 12.2511C17.7583 11.7035 16.7921 11.027 15.8833 10.4366C15.5142 10.8589 14.8848 12.5709 14.6785 12.6554C14.6701 12.5053 17.1633 7.64804 17.4041 7.19299L17.352 7.10812C16.7442 6.48292 16.614 5.87667 16.6355 5.02101C16.6546 4.25977 16.5578 3.4571 16.6975 2.70598C16.7621 2.35868 16.9247 2.25721 17.2091 2.08753Z" fill="var(--fill-0, #FC5000)"/>
<path id="Vector_2" d="M17.2091 2.08757C18.0603 1.51438 19.5737 0.514317 20.3982 0.0311816C20.8914 -0.257775 23.8719 1.54957 24.56 1.92381C26.2443 2.82919 27.9223 3.7461 29.5941 4.67448C31.0989 3.98357 33.2115 2.73093 34.7267 1.9332C36.4241 2.74407 38.114 3.5705 39.7962 4.41241C39.7896 4.66737 39.7899 5.13202 39.7622 5.36845C39.8273 6.82855 39.7728 8.66771 39.7655 10.1487C39.9028 10.3635 44.8257 12.9637 45.5216 13.3454C47.4232 14.3886 49.1543 14.9182 48.9814 17.6022C48.9351 18.3209 49.1973 19.2248 48.5024 19.6682C47.445 20.343 46.3956 21.1258 45.3157 21.7602C45.1984 21.8341 44.9144 21.9558 44.7773 22.019C44.1539 21.8261 43.5773 21.4714 43.0064 21.1527C42.8465 21.3352 42.6687 22.2006 42.5975 22.4852C42.4413 23.1223 41.8537 25.6031 41.6112 26.0662L24.7265 16.2487L21.0697 14.1172C19.1664 12.9998 17.5063 11.5585 15.3985 13.0276C15.2932 13.1009 15.1497 13.1753 15.037 13.2403L15.0726 13.0905C15.9786 12.4058 16.9808 12.1824 18.0997 12.3867C18.2493 12.414 18.8416 12.713 19.0198 12.7919L19.0752 12.7388C19.0435 12.6089 18.8104 12.3117 18.7055 12.2511C17.7583 11.7035 16.7921 11.027 15.8833 10.4366C15.5142 10.8589 14.8848 12.5709 14.6785 12.6554C14.6701 12.5054 17.1632 7.64808 17.4041 7.19303L17.352 7.10816C16.7442 6.48296 16.614 5.87671 16.6355 5.02105C16.6546 4.25981 16.5578 3.45714 16.6975 2.70602C16.7621 2.35872 16.9247 2.25725 17.2091 2.08757Z" fill="var(--fill-0, #5A1E00)"/>
<path id="Vector_3" d="M17.352 7.10805C17.6684 6.64386 17.9299 5.96047 18.2918 5.42035C18.5403 5.77823 18.8235 6.25104 19.2027 6.47922C20.1441 7.04592 21.1461 7.56861 22.1077 8.10209L29.0202 11.8695L37.3822 16.4218L40.1885 17.9439C41.0779 18.4371 42.2217 19.2124 43.2061 19.3909C43.2705 19.4027 43.3352 19.4131 43.4 19.4225C43.2832 19.8452 43.0098 20.7277 42.9808 21.1313L43.0064 21.1526C42.8465 21.3351 42.6687 22.2005 42.5975 22.4851C42.4412 23.1222 41.8537 25.603 41.6112 26.0661L24.7265 16.2486L21.0697 14.1171C19.1664 12.9997 17.5063 11.5584 15.3985 13.0274C15.2932 13.1008 15.1497 13.1752 15.037 13.2402L15.0726 13.0903C15.9786 12.4057 16.9808 12.1823 18.0997 12.3866C18.2493 12.4139 18.8416 12.7128 19.0198 12.7918L19.0752 12.7386C19.0435 12.6088 18.8104 12.3116 18.7055 12.251C17.7583 11.7034 16.7921 11.0269 15.8833 10.4365C15.5142 10.8588 14.8848 12.5708 14.6785 12.6553C14.6701 12.5053 17.1632 7.64797 17.4041 7.19291L17.352 7.10805Z" fill="var(--fill-0, #FDBC9D)"/>
<path id="Vector_4" d="M17.352 7.10805C17.6685 6.64386 17.93 5.96047 18.2918 5.42035C18.5403 5.77823 18.8235 6.25104 19.2027 6.47922C20.1441 7.04592 21.1462 7.56861 22.1077 8.10209L29.0203 11.8695L37.3822 16.4218L40.1885 17.9439C41.0779 18.4371 42.2218 19.2124 43.2061 19.3909C43.2706 19.4027 43.3352 19.4131 43.4001 19.4225C43.2832 19.8452 43.0099 20.7277 42.9808 21.1313C37.2837 18.064 31.6147 14.946 25.9317 11.8524C25.221 11.4656 24.4755 11.0103 23.744 10.6753C23.1141 10.3151 22.3932 9.8976 21.7387 9.58809C21.4354 9.40429 21.1669 9.26752 20.8508 9.10744C20.7278 9.00306 19.9084 8.56249 19.7312 8.46683C18.948 8.04411 18.1723 7.64714 17.4042 7.19291L17.352 7.10805Z" fill="var(--fill-0, #CB4400)"/>
<path id="Vector_5" d="M42.5976 22.4852C41.5639 22.2368 37.9977 19.9071 36.9508 19.1935C36.5179 18.8983 35.9023 18.6116 35.4358 18.3467L32.0756 16.4222C30.5355 15.5254 29.0928 14.3451 27.4637 13.536C27.0227 13.317 26.495 12.8021 26.041 12.5439C25.2364 12.0863 24.4387 11.5964 23.6594 11.0973C23.1375 10.7424 22.8493 10.3694 22.2447 10.0436L22.2151 10.028L22.201 9.94695C22.5697 9.97487 23.3873 10.7573 23.744 10.6754C24.4755 11.0104 25.221 11.4657 25.9317 11.8526C31.6147 14.9462 37.2837 18.0642 42.9808 21.1315L43.0064 21.1527C42.8466 21.3352 42.6687 22.2007 42.5976 22.4852Z" fill="var(--fill-0, #FC9D6D)"/>
<path id="Vector_6" d="M21.7387 9.58815C21.4066 9.76135 20.9509 9.42137 20.7519 9.15827L20.8508 9.1075C21.1669 9.26758 21.4354 9.40435 21.7387 9.58815Z" fill="var(--fill-0, #FC9D6D)"/>
<path id="Vector_7" d="M17.2091 2.08757C17.5908 2.37995 18.0628 2.45568 18.4329 2.6728C19.819 3.486 21.234 4.24102 22.6442 5.01067L39.2541 13.9693L41.9507 15.4474C42.9465 15.9827 43.93 16.4424 44.8161 17.1539C45.7804 17.9282 44.8601 21.1248 45.3157 21.7602C45.1984 21.8341 44.9145 21.9558 44.7773 22.019C44.1539 21.8261 43.5774 21.4714 43.0065 21.1527L42.9808 21.1314C43.0099 20.7278 43.2833 19.8453 43.4001 19.4226C43.3352 19.4133 43.2706 19.4028 43.2061 19.391C42.2218 19.2125 41.078 18.4372 40.1886 17.944L37.3822 16.4219L29.0203 11.8696L22.1077 8.1022C21.1462 7.56872 20.1442 7.04603 19.2027 6.47933C18.8235 6.25115 18.5403 5.77835 18.2919 5.42046C17.93 5.96059 17.6685 6.64397 17.352 7.10816C16.7443 6.48296 16.614 5.87671 16.6355 5.02105C16.6547 4.25981 16.5579 3.45714 16.6976 2.70602C16.7621 2.35872 16.9248 2.25725 17.2091 2.08757Z" fill="var(--fill-0, #3B1400)"/>
<path id="Vector_8" d="M18.2919 5.42032C18.4021 5.08002 18.5493 4.35885 19.0721 4.63115C19.5066 4.85751 19.9294 5.11003 20.3622 5.3423C21.4632 5.92717 22.5602 6.51967 23.653 7.11975L32.2924 11.821L39.4385 15.7181C40.5087 16.3018 41.5958 16.8625 42.6528 17.4668C43.4376 17.9155 43.6809 18.5826 43.4001 19.4225C43.3352 19.4131 43.2706 19.4026 43.2061 19.3909C42.2218 19.2124 41.078 18.437 40.1886 17.9439L37.3822 16.4218L29.0203 11.8695L22.1077 8.10206C21.1462 7.56857 20.1442 7.04589 19.2027 6.47918C18.8235 6.25101 18.5403 5.7782 18.2919 5.42032Z" fill="var(--fill-0, #FC5000)"/>
<path id="Vector_9" d="M36.2973 8.34795C36.9731 7.6968 39.0835 4.95215 39.6856 4.70835C39.7278 4.77292 39.7531 5.25605 39.7622 5.36848C39.8274 6.82858 39.7729 8.66774 39.7656 10.1487C39.5691 10.0113 39.4696 10.0371 39.2798 9.94633C38.2717 9.46428 37.2833 8.86773 36.2973 8.34795Z" fill="var(--fill-0, #3B1400)"/>
<path id="Vector_10" d="M15.037 13.2402C15.1497 13.1752 15.2932 13.1008 15.3985 13.0274C17.5064 11.5584 19.1664 12.9997 21.0698 14.1171L24.7265 16.2486L41.6112 26.0661C42.7303 26.8186 44.0735 27.3818 45.1764 28.1687C45.5805 28.4571 45.6781 28.7249 45.67 29.1956C44.8526 30.1059 43.6833 30.6373 42.6491 31.3366L42.5583 31.3225C42.1365 31.0098 40.762 30.2463 40.2565 29.949L35.3479 27.0757L19.3785 17.7321L15.6176 15.5362C15.0853 15.2266 13.9246 14.5875 13.4858 14.2136C14.0075 13.8966 14.5246 13.572 15.037 13.2402Z" fill="var(--fill-0, #672301)"/>
<path id="Vector_11" d="M0.00219138 23.2271C0.435892 23.5324 0.81152 23.8402 1.27332 24.1112C2.7275 24.9645 4.19611 25.7937 5.65154 26.6448L14.838 32.0125L23.3055 36.9493C24.4165 37.5945 25.5203 38.2556 26.6337 38.8973C27.4983 39.3957 27.8488 39.5579 28.8486 39.5641C28.8533 40.3759 28.853 41.1878 28.8476 41.9997C28.2391 42.0069 27.6378 41.8673 27.0945 41.5932C26.7109 41.4018 26.1648 41.0213 25.7746 40.7938L22.986 39.1867L14.1942 34.0672L5.14743 28.7781C3.7503 27.9608 1.09503 26.5934 0.012723 25.5554C0.000738024 24.7793 -0.00277077 24.0032 0.00219138 23.2271Z" fill="var(--fill-0, #3B1400)"/>
<path id="Vector_12" d="M42.5583 31.3226L42.6491 31.3367C43.6833 30.6374 44.8526 30.106 45.67 29.1957C45.6837 29.8872 45.7315 30.9385 45.6592 31.5929C45.54 31.7699 45.3823 32.0028 45.2074 32.1205C44.3943 32.6668 43.5487 33.1974 42.723 33.7232L37.8072 36.8424L33.0005 39.8982C31.8996 40.601 30.1257 41.9816 28.8476 41.9998C28.853 41.1879 28.8533 40.376 28.8486 39.5642C29.4434 39.4303 29.8389 39.4595 30.4066 39.1037C32.3367 37.894 34.2567 36.668 36.183 35.4521L40.166 32.9333C40.5145 32.7126 42.4251 31.5641 42.5583 31.3226Z" fill="var(--fill-0, #B63800)"/>
<path id="Vector_13" d="M8.85545 21.2559C9.88115 21.119 10.7885 21.3137 11.7767 21.5347C12.4831 23.3598 13.9521 23.5907 15.7002 23.7683C15.7286 23.797 15.7562 23.8264 15.7829 23.8566C16.7072 24.9021 16.25 26.0882 15.301 26.886C14.7433 27.3549 14.0487 27.6436 13.521 28.1038C13.3378 27.9766 13.0883 27.8323 12.8944 27.7124L4.83284 22.9854C6.29304 22.0127 7.10936 21.4678 8.85545 21.2559Z" fill="var(--fill-0, #3B1400)"/>
<path id="Vector_14" d="M16.1141 19.1294C19.7446 18.9534 21.1167 22.4305 16.347 23.0482C12.3801 23.204 11.5158 19.4618 16.1141 19.1294Z" fill="var(--fill-0, #3B1400)"/>
<path id="Vector_15" d="M22.6966 25.2893C23.2576 25.2555 24.6916 26.19 25.2304 26.5058L28.2349 28.2694L33.096 31.1195C33.6117 31.4229 34.9498 32.098 35.3636 32.5538C35.5823 32.7945 35.1417 33.0403 34.8797 33.129C34.7124 33.1345 34.3714 33.1566 34.2341 33.0824C33.4791 32.6742 32.7286 32.2189 31.9903 31.784L28.0924 29.5028L24.547 27.4293C23.8076 26.9995 22.7135 26.4085 22.0744 25.8903L22.0661 25.7554C22.1966 25.4887 22.432 25.4055 22.6966 25.2893Z" fill="var(--fill-0, #3B1400)"/>
<path id="Vector_16" d="M25.0827 23.8393C26.3802 23.8483 35.6031 29.9764 37.4288 30.7651C37.9472 30.989 37.8605 31.3908 37.2375 31.6274C36.4352 31.6858 35.4209 30.9193 34.7155 30.5065L31.2788 28.4905L26.3299 25.5917C25.7972 25.2777 25.2727 24.9656 24.72 24.684C24.618 24.6321 24.5381 24.5177 24.4959 24.4097C24.4631 24.0246 24.7857 23.9273 25.0827 23.8393Z" fill="var(--fill-0, #3B1400)"/>
<path id="Vector_17" d="M20.317 26.7538C20.3532 26.7549 20.3894 26.7568 20.4255 26.7595C21.0837 26.8074 24.1543 28.8015 24.9341 29.215C25.467 29.4975 27.9108 30.8963 28.1785 31.2068C28.1994 31.6261 27.8946 31.6672 27.5569 31.7854C27.3939 31.7907 27.1248 31.7949 26.9825 31.7164C25.9516 31.1469 24.8949 30.5174 23.8869 29.9155C22.6395 29.1705 21.3936 28.4823 20.1591 27.7269C20.0078 27.6343 19.685 27.4083 19.623 27.2533C19.6653 26.9036 20.0205 26.8052 20.317 26.7538Z" fill="var(--fill-0, #3B1400)"/>
<path id="Vector_18" d="M25.0752 33.745C25.1401 33.7417 25.3628 33.7367 25.4053 33.7502C26.1025 33.9722 29.2763 35.8103 29.5806 36.2015C29.6357 36.5684 29.3563 36.654 29.0659 36.7861C28.3066 36.8538 27.0702 35.878 26.3504 35.5054C25.9165 35.2808 24.8546 34.6827 24.5531 34.3395C24.4638 33.9766 24.7942 33.8742 25.0752 33.745Z" fill="var(--fill-0, #3B1400)"/>
</g>
</svg>
