<svg preserveAspectRatio="none" width="100%" height="100%" overflow="visible" style="display: block;" viewBox="0 0 41 41" fill="none" xmlns="http://www.w3.org/2000/svg">
<g id="image 16 [Vectorized]">
<path id="Vector" d="M16.6785 6.77934C18.2195 6.71948 20.0549 6.79111 21.6211 6.77333C22.6205 6.76196 24.6336 6.72104 25.5682 6.80425C25.7549 7.08908 26.5039 7.75377 26.7941 8.02708L28.786 9.90972L32.6502 13.5722C33.0207 13.9187 33.3665 14.2798 33.746 14.6172L32.6919 14.6149C27.0213 14.6165 21.275 14.6677 15.6125 14.607C15.6513 12.2794 15.5476 9.93262 15.6535 7.60923C15.6771 7.09072 16.2293 6.82875 16.6785 6.77934Z" fill="var(--fill-0, #FEFEFE)"/>
<path id="Vector_2" d="M7.26344 26.3892C9.3273 26.4344 11.6099 26.3852 13.6931 26.3853L25.3801 26.382L25.3696 31.3588C25.3694 32.0251 25.413 32.795 25.3586 33.4553C25.3502 33.5563 25.1581 33.8159 25.0894 33.9133C24.959 34.0328 24.7782 34.169 24.601 34.183C23.6376 34.259 22.5797 34.2231 21.6127 34.2234L15.4691 34.2234C15.1541 33.8429 14.7282 33.4639 14.3668 33.1176C13.74 32.5113 13.1067 31.9118 12.4669 31.3192L7.26344 26.3892Z" fill="var(--fill-0, #FEFEFE)"/>
<path id="Vector_3" d="M14.558 7.3164C14.5703 7.33557 14.5853 7.35912 14.6032 7.38702C14.6218 8.64029 14.6165 10.2846 14.6167 11.505L14.6109 25.3737L10.1402 25.3805C9.35953 25.3832 8.4928 25.4134 7.71921 25.3445C7.47169 25.3224 7.31057 25.2447 7.11217 25.101C7.0608 25.0545 7.01232 25.0049 6.96695 24.9524C6.69909 24.6429 6.77509 23.4612 6.77645 23.0127L6.77885 20.723L6.77741 17.5529C6.77673 16.8766 6.75875 16.1053 6.80459 15.437C7.12463 15.2022 7.71276 14.5426 7.99864 14.2391L10.1008 12.0071L13.384 8.5474C13.7554 8.15097 14.2173 7.71895 14.558 7.3164Z" fill="var(--fill-0, #FEFEFE)"/>
<path id="Vector_4" d="M26.3897 15.6317C28.5098 15.54 30.7209 15.6833 32.8476 15.6127C34.5063 15.5576 34.2335 16.8112 34.228 18.0026L34.2262 20.1531C34.2267 21.8031 34.2853 23.9063 34.2119 25.5199C32.8796 26.8069 31.4817 28.364 30.183 29.72C28.9072 31.0382 27.6736 32.4197 26.3833 33.7325L26.3897 15.6317Z" fill="var(--fill-0, #FEFEFE)"/>
</g>
</svg>
