<svg preserveAspectRatio="none" width="100%" height="100%" overflow="visible" style="display: block;" viewBox="0 0 15.6 15.6" fill="none" xmlns="http://www.w3.org/2000/svg">
<g id="PencilSimple">
<path id="Vector" d="M13.8517 4.47076L11.129 1.74747C11.0385 1.65691 10.931 1.58507 10.8127 1.53606C10.6944 1.48704 10.5676 1.46182 10.4395 1.46182C10.3115 1.46182 10.1847 1.48704 10.0663 1.53606C9.94804 1.58507 9.84054 1.65691 9.75 1.74747L2.2358 9.26228C2.14487 9.35249 2.07278 9.45987 2.02371 9.57819C1.97465 9.69651 1.9496 9.82339 1.95 9.95148V12.6748C1.95 12.9334 2.05273 13.1814 2.23558 13.3642C2.41842 13.5471 2.66642 13.6498 2.925 13.6498H5.6483C5.77639 13.6502 5.90328 13.6251 6.02159 13.5761C6.13991 13.527 6.2473 13.4549 6.33751 13.364L13.8517 5.84978C13.9423 5.75924 14.0141 5.65174 14.0631 5.53344C14.1121 5.41513 14.1374 5.28833 14.1374 5.16027C14.1374 5.03221 14.1121 4.90541 14.0631 4.7871C14.0141 4.6688 13.9423 4.5613 13.8517 4.47076ZM11.7 6.62247L8.97671 3.89978L10.4392 2.43728L13.1625 5.15997L11.7 6.62247Z" fill="var(--fill-0, #CCCCCC)"/>
</g>
</svg>
