<svg preserveAspectRatio="none" width="100%" height="100%" overflow="visible" style="display: block;" viewBox="0 0 18 18" fill="none" xmlns="http://www.w3.org/2000/svg">
<g id="PlusCircle">
<path id="Vector" d="M9 1.40625C7.4981 1.40625 6.02992 1.85162 4.78114 2.68603C3.53235 3.52044 2.55904 4.70642 1.98429 6.094C1.40954 7.48157 1.25916 9.00842 1.55216 10.4815C1.84517 11.9545 2.5684 13.3076 3.63041 14.3696C4.69241 15.4316 6.04549 16.1548 7.51853 16.4478C8.99158 16.7408 10.5184 16.5905 11.906 16.0157C13.2936 15.441 14.4796 14.4676 15.314 13.2189C16.1484 11.9701 16.5937 10.5019 16.5937 9C16.5915 6.9867 15.7907 5.0565 14.3671 3.63287C12.9435 2.20925 11.0133 1.40848 9 1.40625ZM9 14.9062C7.83185 14.9062 6.68994 14.5599 5.71866 13.9109C4.74739 13.2619 3.99037 12.3394 3.54334 11.2602C3.09631 10.181 2.97934 8.99345 3.20724 7.84775C3.43513 6.70205 3.99765 5.64965 4.82365 4.82365C5.64965 3.99765 6.70205 3.43513 7.84775 3.20724C8.99345 2.97934 10.181 3.09631 11.2602 3.54334C12.3394 3.99037 13.2619 4.74739 13.9109 5.71866C14.5599 6.68994 14.9062 7.83185 14.9062 9C14.9046 10.5659 14.2818 12.0672 13.1745 13.1745C12.0672 14.2818 10.5659 14.9046 9 14.9062ZM12.6562 9C12.6562 9.22378 12.5674 9.43839 12.4091 9.59662C12.2509 9.75485 12.0363 9.84375 11.8125 9.84375H9.84375V11.8125C9.84375 12.0363 9.75485 12.2509 9.59662 12.4091C9.43839 12.5674 9.22378 12.6562 9 12.6562C8.77622 12.6562 8.56161 12.5674 8.40338 12.4091C8.24514 12.2509 8.15625 12.0363 8.15625 11.8125V9.84375H6.1875C5.96372 9.84375 5.74911 9.75485 5.59088 9.59662C5.43264 9.43839 5.34375 9.22378 5.34375 9C5.34375 8.77622 5.43264 8.56161 5.59088 8.40338C5.74911 8.24514 5.96372 8.15625 6.1875 8.15625H8.15625V6.1875C8.15625 5.96372 8.24514 5.74911 8.40338 5.59088C8.56161 5.43264 8.77622 5.34375 9 5.34375C9.22378 5.34375 9.43839 5.43264 9.59662 5.59088C9.75485 5.74911 9.84375 5.96372 9.84375 6.1875V8.15625H11.8125C12.0363 8.15625 12.2509 8.24514 12.4091 8.40338C12.5674 8.56161 12.6562 8.77622 12.6562 9Z" fill="var(--fill-0, #FF5533)"/>
</g>
</svg>
