<svg preserveAspectRatio="none" width="100%" height="100%" overflow="visible" style="display: block;" viewBox="0 0 15.6 15.6" fill="none" xmlns="http://www.w3.org/2000/svg">
<g id="Eye" clip-path="url(#clip0_147_14862)">
<path id="Vector" d="M15.2953 7.50323C15.2727 7.45388 14.7389 6.26864 13.5598 5.0895C11.9821 3.51427 9.99373 2.68125 7.79998 2.68125C5.60623 2.68125 3.61784 3.51427 2.042 5.0895C0.862858 6.26864 0.329045 7.45388 0.30467 7.50323C0.263387 7.59683 0.242065 7.69801 0.242065 7.80031C0.242065 7.9026 0.263387 8.00378 0.30467 8.09738C0.327217 8.14734 0.86103 9.33197 2.04078 10.5111C3.61784 12.0863 5.60623 12.9188 7.79998 12.9188C9.99373 12.9188 11.9821 12.0863 13.5574 10.5111C14.7371 9.33197 15.2709 8.14734 15.2935 8.09738C15.335 8.0039 15.3567 7.9028 15.357 7.8005C15.3573 7.6982 15.3363 7.59696 15.2953 7.50323ZM12.4885 9.51417C11.1802 10.8024 9.60312 11.4563 7.79998 11.4563C5.99684 11.4563 4.41978 10.8024 3.11328 9.51356C2.59918 9.00487 2.15695 8.42836 1.79886 7.8C2.15705 7.17189 2.59927 6.59559 3.11328 6.08705C4.42039 4.79761 5.99684 4.14375 7.79998 4.14375C9.60312 4.14375 11.1796 4.79761 12.4867 6.08705C13.0007 6.59555 13.443 7.17186 13.8011 7.8C13.443 8.42832 13.0007 9.00483 12.4867 9.51356L12.4885 9.51417ZM7.79998 5.11875C7.26968 5.11875 6.75129 5.276 6.31036 5.57062C5.86943 5.86524 5.52577 6.284 5.32283 6.77393C5.11989 7.26386 5.0668 7.80297 5.17025 8.32309C5.27371 8.8432 5.52907 9.32095 5.90405 9.69593C6.27903 10.0709 6.75679 10.3263 7.2769 10.4297C7.79701 10.5332 8.33612 10.4801 8.82605 10.2772C9.31599 10.0742 9.73474 9.73055 10.0294 9.28962C10.324 8.84869 10.4812 8.3303 10.4812 7.8C10.4804 7.08914 10.1977 6.40762 9.69502 5.90496C9.19237 5.4023 8.51085 5.11956 7.79998 5.11875ZM7.79998 9.01875C7.55894 9.01875 7.3233 8.94727 7.12288 8.81335C6.92246 8.67944 6.76625 8.48909 6.674 8.2664C6.58176 8.0437 6.55763 7.79865 6.60465 7.56223C6.65168 7.32582 6.76775 7.10866 6.9382 6.93821C7.10864 6.76777 7.3258 6.65169 7.56222 6.60467C7.79863 6.55764 8.04368 6.58178 8.26638 6.67402C8.48908 6.76627 8.67942 6.92248 8.81334 7.1229C8.94725 7.32332 9.01873 7.55895 9.01873 7.8C9.01873 8.12323 8.89033 8.43323 8.66177 8.66179C8.43321 8.89035 8.12322 9.01875 7.79998 9.01875Z" fill="var(--fill-0, #CCCCCC)"/>
</g>
<defs>
<clipPath id="clip0_147_14862">
<rect width="15.6" height="15.6" fill="white"/>
</clipPath>
</defs>
</svg>
