<svg preserveAspectRatio="none" width="100%" height="100%" overflow="visible" style="display: block;" viewBox="0 0 22 22" fill="none" xmlns="http://www.w3.org/2000/svg">
<g id="icon">
<path id="Vector" d="M16.0417 10.0833H5.95833C4.94581 10.0833 4.125 10.9041 4.125 11.9167V17.4167C4.125 18.4292 4.94581 19.25 5.95833 19.25H16.0417C17.0542 19.25 17.875 18.4292 17.875 17.4167V11.9167C17.875 10.9041 17.0542 10.0833 16.0417 10.0833Z" stroke="var(--stroke-0, #111827)" stroke-width="1.5" stroke-linejoin="round"/>
<path id="Vector_2" d="M7.33333 10.0833V6.41667C7.33333 5.44421 7.71964 4.51158 8.40728 3.82394C9.09491 3.13631 10.0275 2.75 11 2.75C11.9725 2.75 12.9051 3.13631 13.5927 3.82394C14.2804 4.51158 14.6667 5.44421 14.6667 6.41667V10.0833" stroke="var(--stroke-0, #111827)" stroke-width="1.5" stroke-linejoin="round"/>
</g>
</svg>
