<svg preserveAspectRatio="none" width="100%" height="100%" overflow="visible" style="display: block;" viewBox="0 0 18.75 21" fill="none" xmlns="http://www.w3.org/2000/svg">
<g id="Container">
<path id="Symbol" d="M18.75 10.5V10.5V10.5C18.75 10.7812 18.6797 11.0352 18.5391 11.2617C18.3984 11.4883 18.2188 11.6641 18 11.7891L17.9766 11.8125L2.25 20.8125C2.14062 20.875 2.02344 20.9219 1.89844 20.9531C1.77344 20.9844 1.64062 21 1.5 21V21C1.09375 21 0.742188 20.8516 0.445312 20.5547C0.148438 20.2578 0 19.9062 0 19.5C0 19.4062 0.0078125 19.3164 0.0234375 19.2305C0.0390625 19.1445 0.0625 19.0625 0.09375 18.9844V19.0078L2.625 11.5078C2.65625 11.4297 2.70312 11.3672 2.76562 11.3203C2.82812 11.2734 2.89844 11.25 2.97656 11.25H9.75V11.25V11.25C9.95312 11.25 10.1289 11.1758 10.2773 11.0273C10.4258 10.8789 10.5 10.7031 10.5 10.5C10.5 10.4844 10.5 10.4727 10.5 10.4648C10.5 10.457 10.5 10.4531 10.5 10.4531V10.4531C10.4844 10.25 10.4023 10.082 10.2539 9.94922C10.1055 9.81641 9.92969 9.75 9.72656 9.75V9.75V9.75H2.97656V9.75V9.75C2.89844 9.75 2.82422 9.72656 2.75391 9.67969C2.68359 9.63281 2.64062 9.57031 2.625 9.49219V9.49219L0.09375 1.99219C0.0625 1.92969 0.0390625 1.85547 0.0234375 1.76953C0.0078125 1.68359 0 1.59375 0 1.5C0 1.09375 0.148438 0.742188 0.445312 0.445312C0.742188 0.148438 1.09375 0 1.5 0C1.64062 0 1.77344 0.015625 1.89844 0.046875C2.02344 0.078125 2.14062 0.125 2.25 0.1875H2.22656L17.9766 9.1875C18.2109 9.3125 18.3984 9.49219 18.5391 9.72656C18.6797 9.96094 18.75 10.2188 18.75 10.5V10.5V10.5V10.5" fill="var(--fill-0, white)"/>
</g>
</svg>
