<svg preserveAspectRatio="none" width="100%" height="100%" overflow="visible" style="display: block;" viewBox="0 0 33 42.5282" fill="none" xmlns="http://www.w3.org/2000/svg">
<g id="Group 2">
<path id="Vector" d="M21.622 0H22.4848H32.9999V8.49327V9.64155V15.9656L32.9632 15.9785C32.752 15.9704 28.9941 14.5077 28.5165 14.3166C28.0903 14.2074 27.448 13.9206 27.0051 13.7697C26.8022 13.7007 26.0774 13.4347 25.9254 13.3513C25.644 13.2307 25.2472 13.0959 24.9529 12.9862L23.2765 12.3583C22.514 12.0778 21.6904 11.7398 20.9235 11.4927C20.5856 11.9163 18.3531 14.9678 18.2125 15.0384C18.044 14.8386 17.84 14.5329 17.6868 14.3152L16.9282 13.2407L15.9383 11.819C15.7107 11.4947 15.4352 11.1217 15.2274 10.7898C15.0517 10.5036 14.779 10.1399 14.58 9.85629C14.1639 9.26877 13.7537 8.67709 13.3494 8.08128C12.5872 6.9626 11.7723 5.86712 11.014 4.74426C10.9065 4.58508 10.8062 4.42227 10.7068 4.25791C10.7606 4.16439 10.8191 4.07367 10.882 3.98609C11.1184 3.65397 13.3078 0.665783 13.4288 0.645724C13.6103 0.665254 14.3886 0.958107 14.617 1.03936L16.8336 1.82167L18.3362 2.34869C18.4195 2.37846 18.838 2.52295 18.8975 2.55847C19.0579 2.60427 19.237 2.66902 19.3968 2.72268C19.3087 1.45911 20.0067 0.478917 21.2308 0.114468C21.3612 0.0756246 21.492 0.0407845 21.622 0Z" fill="var(--fill-0, #F94C00)"/>
<path id="Vector_2" d="M25.326 3.53256C25.8652 2.65605 26.3625 1.88933 27.4424 1.62273C28.5154 1.35776 29.7925 2.02937 30.0384 3.15158C30.2977 4.44727 29.3136 5.3915 28.4558 6.1491C28.1689 6.25998 27.7906 6.33858 27.4759 6.45661C26.4566 6.85017 25.4864 7.36276 24.5855 7.98388C24.9442 6.8734 25.2024 5.89683 25.3064 4.72275C25.3445 4.29238 25.3034 3.93803 25.3249 3.55193L25.326 3.53256Z" fill="var(--fill-0, #C53302)"/>
<path id="Vector_3" d="M25.6477 4.9395C25.9679 4.09329 26.5393 2.96736 27.3847 2.5622C28.3359 2.10623 29.5883 2.95942 29.0907 4.04463C28.7033 4.88939 27.7789 5.63407 27.0186 6.13565C26.9332 6.18521 26.8494 6.24142 26.7687 6.29831C26.1925 6.70373 25.5809 7.05161 24.9536 7.37097C25.0811 6.52792 25.3458 5.73361 25.6477 4.9395Z" fill="var(--fill-0, white)"/>
<path id="Vector_4" d="M24.9536 7.37097C25.0811 6.52791 25.3458 5.73361 25.6477 4.9395C25.8197 5.00582 26.3436 5.18846 26.482 5.25925C26.6829 5.54597 26.8322 5.86377 27.0186 6.13565C26.9332 6.18521 26.8494 6.24142 26.7687 6.2983C26.1925 6.70373 25.5809 7.05161 24.9536 7.37097Z" fill="var(--fill-0, #F57831)"/>
<path id="Vector_5" d="M30.3349 11.6128C31.3059 11.6261 32.1517 11.3596 32.675 10.4744C32.8323 10.2081 32.9105 9.93402 32.9999 9.64155V15.9656L32.9632 15.9785C32.752 15.9704 28.9941 14.5077 28.5165 14.3166C28.3685 14.0942 28.2161 13.8213 28.0701 13.5898C27.3729 12.4771 26.6964 11.3514 26.0412 10.2131C26.7169 10.501 27.372 10.8615 28.0577 11.1327C28.5613 11.3319 29.0729 11.4718 29.5865 11.6383C29.8308 11.7175 30.3301 11.9701 30.5575 11.9955C30.5003 11.8821 30.4015 11.7256 30.3349 11.6128Z" fill="var(--fill-0, #F57831)"/>
<path id="Vector_6" d="M30.3349 11.6128C31.3059 11.6261 32.1517 11.3596 32.675 10.4744C32.8323 10.2081 32.9105 9.93402 32.9999 9.64155V15.9656L32.9631 15.9785C32.8319 15.7042 32.6329 15.3874 32.4743 15.1242L31.6354 13.7466L30.9404 12.6031C30.8392 12.4377 30.6698 12.1438 30.5575 11.9955C30.5003 11.8821 30.4015 11.7256 30.3349 11.6128Z" fill="var(--fill-0, white)"/>
<path id="Vector_7" d="M10.7068 4.25791C10.7606 4.16439 10.8191 4.07367 10.882 3.98609C11.1184 3.65397 13.3078 0.665783 13.4288 0.645724C13.6546 1.05483 14.218 1.81495 14.5017 2.22963C14.9005 2.82204 15.3053 3.4103 15.7162 3.99425C15.8025 4.11465 16.0168 4.4305 16.1117 4.50972L14.4822 6.66327C14.1607 7.09408 13.8419 7.52662 13.5237 7.95979C13.4657 8.03877 13.4334 8.04693 13.3494 8.08129C12.5872 6.9626 11.7723 5.86712 11.014 4.74427C10.9065 4.58508 10.8062 4.42227 10.7068 4.25791Z" fill="var(--fill-0, #F94C00)"/>
<path id="Vector_8" d="M17.9087 7.09761C19.1228 7.50536 20.3621 7.97579 21.5696 8.41611C21.9966 8.56876 22.4228 8.72398 22.8481 8.88178C23.0066 8.94121 23.2849 9.03754 23.4306 9.11027C23.7975 9.82641 24.4214 10.8105 24.8502 11.5246L25.5441 12.6913C25.6634 12.8954 25.8014 13.1569 25.9254 13.3513C25.644 13.2307 25.2472 13.0959 24.9529 12.9862L23.2765 12.3584C22.514 12.0778 21.6903 11.7398 20.9235 11.4927C20.7571 11.2753 20.5863 11.0028 20.4267 10.7734C20.1005 10.3125 19.7785 9.84865 19.4608 9.3818C18.9594 8.64478 18.389 7.84277 17.9087 7.09761Z" fill="var(--fill-0, #F57831)"/>
<path id="Vector_9" d="M13.4289 0.645724C13.6104 0.665254 14.3886 0.958107 14.617 1.03936L16.8337 1.82167L18.3362 2.34869C18.4195 2.37846 18.8381 2.52295 18.8975 2.55847C18.9328 2.67182 19.3764 3.34082 19.4618 3.48515C19.6728 3.8418 19.8096 4.20195 20.0027 4.55667C20.355 5.20361 20.8316 5.79977 21.3023 6.36194C20.118 5.92412 18.9311 5.4934 17.7417 5.06983C17.3023 4.91306 16.554 4.60287 16.1347 4.51268L16.1118 4.50972C16.0168 4.4305 15.8025 4.11465 15.7162 3.99425C15.3053 3.4103 14.9005 2.82204 14.5018 2.22963C14.218 1.81495 13.6547 1.05483 13.4289 0.645724Z" fill="var(--fill-0, #F57831)"/>
<path id="Vector_10" d="M16.1117 4.50972L16.1346 4.51269C16.3675 4.98884 16.9008 5.67279 17.2108 6.12455C17.3787 6.36932 17.7685 6.93265 17.9458 7.13879C17.4913 7.65928 16.8664 8.57047 16.4372 9.14219L15.6486 10.1847C15.5139 10.3632 15.3133 10.5925 15.2274 10.7898C15.0517 10.5036 14.779 10.1399 14.5799 9.85629C14.1639 9.26878 13.7537 8.67709 13.3494 8.08129C13.4334 8.04693 13.4656 8.03877 13.5236 7.95979C13.8418 7.52662 14.1607 7.09408 14.4822 6.66327L16.1117 4.50972Z" fill="var(--fill-0, #C53302)"/>
<path id="Vector_11" d="M28.4421 8.49766C29.4272 8.35403 30.7869 8.28705 31.6278 8.91805C31.6811 8.95892 31.7336 9.00117 31.7847 9.04477C31.9952 9.20178 32.2764 9.65801 32.232 9.93819C32.0683 10.9692 30.9456 11.2549 30.0582 11.2084C28.8961 11.1474 27.8226 10.701 26.7658 10.2461C25.8843 9.87687 25.139 9.5037 24.3334 9.01425C24.9943 9.13645 25.2165 9.08384 25.8551 8.97395C26.1289 9.07241 26.4171 9.20639 26.6844 9.29618C27.4556 9.55532 28.3572 9.6991 29.1704 9.73686C29.0909 9.60931 29.0099 9.48255 28.9281 9.35662C28.8241 9.15496 28.5023 8.68614 28.4421 8.49766Z" fill="var(--fill-0, #C53302)"/>
<path id="Vector_12" d="M28.4421 8.49766C29.4272 8.35403 30.7869 8.28705 31.6278 8.91805C31.6811 8.95892 31.7336 9.00117 31.7847 9.04477C30.8642 9.61047 30.2622 9.77637 29.1704 9.73686C29.0909 9.60931 29.0099 9.48255 28.9281 9.35662C28.8241 9.15496 28.5023 8.68614 28.4421 8.49766Z" fill="var(--fill-0, white)"/>
<path id="Vector_13" d="M23.2651 7.02866C23.2638 7.461 23.3875 8.14564 23.6626 8.49161C23.6894 8.52515 23.6904 8.52061 23.6974 8.57013C23.2525 8.22979 22.5919 7.42895 22.2225 6.98928C21.7271 6.3994 21.1778 5.74065 20.7523 5.10235C20.4274 4.59709 20.173 4.11762 19.991 3.54233C19.7518 2.78613 19.7126 1.88958 20.3621 1.32211C20.4689 1.22879 20.5853 1.20393 20.7164 1.16059C21.0536 1.04908 21.3133 1.21042 21.5989 1.37129C22.3886 1.95686 22.8402 3.07383 22.9972 4.02335C22.6578 3.88922 22.2656 3.75765 21.9189 3.63326C21.8114 3.59048 21.674 3.5493 21.562 3.51251C21.7654 4.40572 22.1472 5.26231 22.6154 6.04694C22.8148 6.38077 23.0647 6.69583 23.2651 7.02866Z" fill="var(--fill-0, #C53302)"/>
<path id="Vector_14" d="M21.5989 1.37129C22.3886 1.95686 22.8403 3.07383 22.9972 4.02335C22.6579 3.88922 22.2656 3.75765 21.9189 3.63326C21.8114 3.59048 21.674 3.5493 21.562 3.51251C21.3205 2.91201 21.3771 1.9771 21.5989 1.37129Z" fill="var(--fill-0, white)"/>
<path id="Vector_15" d="M22.0963 0.768178C24.2324 0.96988 24.6208 2.77024 24.5528 4.57075C24.3206 4.49809 24.0986 4.40163 23.8537 4.3282C23.6543 3.28685 23.3779 2.16618 22.6896 1.32569C22.529 1.1294 22.2935 0.930106 22.0963 0.768178Z" fill="var(--fill-0, white)"/>
<path id="Vector_16" d="M27.6709 7.23788C28.6965 6.85078 29.9311 6.52874 30.9857 7.0013C31.5168 7.23931 31.9244 7.7157 32.1282 8.26015C32.1391 8.28867 32.1489 8.31765 32.1576 8.34696C31.9214 8.18374 31.6968 8.03892 31.4243 7.92875C30.3834 7.50771 29.171 7.57857 28.0838 7.74166C28.0605 7.74512 28.0322 7.75256 28.0098 7.7582C27.9207 7.72389 27.7277 7.33961 27.6709 7.23788Z" fill="var(--fill-0, white)"/>
<path id="Vector_17" d="M23.8537 4.32821C24.0986 4.40163 24.3206 4.4981 24.5529 4.57076C24.4789 5.22792 24.3132 6.37662 24.0337 6.95229C24.0074 5.95297 23.9959 5.33117 23.8537 4.32821Z" fill="var(--fill-0, #F57831)"/>
<path id="Vector_18" d="M21.9189 3.63326C22.2656 3.75765 22.6578 3.88921 22.9972 4.02334C23.1219 4.64627 23.1539 5.11582 23.2124 5.73257C23.0407 5.43836 22.8548 5.13271 22.6694 4.84757C22.4143 4.4554 22.1241 4.05507 21.9189 3.63326Z" fill="var(--fill-0, #F57831)"/>
<path id="Vector_19" d="M28.0098 7.7582C27.3228 7.88634 26.6411 7.98638 25.9668 8.18163C25.9178 8.19581 25.8671 8.191 25.819 8.17683L25.812 8.14684C26.0808 7.91813 27.3191 7.37689 27.6709 7.23788C27.7277 7.33961 27.9207 7.72389 28.0098 7.7582Z" fill="var(--fill-0, #F57831)"/>
<path id="Vector_20" d="M27.1744 8.7104C27.2771 8.67543 28.3265 8.50288 28.442 8.49766C28.5023 8.68614 28.824 9.15496 28.9281 9.35662C28.7409 9.34146 28.0694 9.04112 27.8657 8.9567C27.6397 8.86215 27.409 8.77992 27.1744 8.7104Z" fill="var(--fill-0, #F57831)"/>
<path id="Vector_21" d="M20.9235 11.4927C21.6904 11.7398 22.514 12.0778 23.2765 12.3584L24.9529 12.9862C25.2472 13.0959 25.644 13.2307 25.9254 13.3513C26.0774 13.4347 26.8022 13.7007 27.0051 13.7697C27.448 13.9206 28.0903 14.2074 28.5165 14.3167C28.9941 14.5077 32.752 15.9704 32.9632 15.9785L32.9999 15.9656V15.9955C32.5764 16.5938 32.1151 17.1894 31.6759 17.7775C31.211 18.4107 30.7406 19.0398 30.2648 19.6647C29.9141 19.503 29.3249 19.2961 28.9575 19.1562L26.8927 18.3617L21.1795 16.1773L19.3343 15.4788C19.1017 15.3928 18.3967 15.1462 18.2125 15.0384C18.3531 14.9679 20.5856 11.9163 20.9235 11.4927Z" fill="var(--fill-0, #C53302)"/>
<path id="Vector_22" d="M3.49552 13.9543C3.64064 13.7106 3.82781 13.6614 4.08768 13.5876C4.65598 13.4263 5.36434 13.4049 5.91355 13.2188C6.39413 13.056 6.84852 12.4603 7.30564 12.2309C7.82942 11.9479 8.43742 11.8202 8.98424 11.5719C9.4806 11.3465 9.93381 11.1069 10.4113 10.8444C10.5935 10.7443 10.8126 10.6083 10.9921 10.5182C11.4306 11.6355 11.6067 11.9796 12.5111 12.7509C12.9552 13.1296 13.5157 14.6669 13.5823 15.264L13.5915 15.2942C14.0768 15.035 14.5893 14.7299 15.0686 14.4559C15.4612 14.6493 15.8364 14.8797 16.2186 15.0952C17.2086 15.6594 18.1916 16.2363 19.1671 16.8256C19.569 17.065 19.9726 17.3014 20.378 17.5347C20.7478 17.7464 21.1116 17.9392 21.4543 18.1942C21.9374 18.369 22.5564 18.4755 23.0553 18.6198C23.2984 18.6901 23.5703 18.7342 23.793 18.859C23.9723 18.9573 24.1164 19.1102 24.2046 19.2958C24.2919 19.4803 24.3173 19.6755 24.3141 19.878C24.5315 19.9785 27.0083 21.3801 27.1158 21.5109C27.1208 21.5584 27.1247 21.5926 27.1247 21.6411L27.1097 21.8329L27.1304 21.8891C27.2031 21.9158 27.4116 21.9578 27.4967 21.9661C28.0836 22.0249 28.4534 22.3525 28.9418 22.6318C29.5671 22.9926 30.2449 23.2515 30.9504 23.3992C30.3446 24.0198 29.9796 24.4191 29.1233 24.6898C28.2818 24.9557 27.7159 25.3513 27.103 25.9936L27.0984 26.804C27.0797 27.863 27.0451 29.0097 27.0586 30.0632C27.8261 30.0435 28.5524 30.3168 29.1945 30.7225C28.4481 31.0728 27.6931 31.3604 27.0575 31.8946L27.0383 34.0235C27.0359 34.4614 27.0451 34.9671 27.0237 35.4C26.0033 35.9563 24.8874 36.6584 23.8722 37.2533C21.6595 38.5604 19.4397 39.855 17.2128 41.1375L15.566 42.1033C15.425 42.186 14.9143 42.4977 14.8033 42.5282C13.2195 41.573 11.5906 40.6549 10.0001 39.7041L6.84824 37.8494C6.53217 37.6498 6.11902 37.426 5.78706 37.2314L3.73152 36.0241C3.37231 35.8148 2.91201 35.563 2.57459 35.3396C2.56763 34.9142 2.58826 34.4739 2.59009 34.0457L2.60694 30.6759C1.98055 30.2363 1.20114 29.8497 0.565707 29.4031C1.22307 29.0707 1.87649 28.8711 2.61107 28.8382C2.59568 26.3922 2.64337 23.8829 2.66194 21.4342C2.72193 21.3532 3.28722 21.0686 3.41606 21.0013C2.99753 19.5986 2.5725 18.2582 1.44494 17.2646C1.02304 16.8928 0.324211 16.2719 0 15.851C0.508311 15.6448 1.12688 15.3539 1.61198 15.1829C2.01905 15.0394 2.47882 15.0238 2.96164 14.8348C3.25618 14.6427 3.37204 14.2697 3.49552 13.9543Z" fill="var(--fill-0, #F57831)"/>
<path id="Vector_23" d="M2.66197 21.4342C2.77149 21.4649 3.23725 21.7476 3.36809 21.8243C3.8863 22.1261 4.40279 22.431 4.91753 22.7388L12.1677 27.0028L14.2202 28.2059C14.3463 28.2803 14.7714 28.5698 14.8764 28.6071C14.9072 28.7772 14.8913 29.6834 14.8909 29.9118L14.8642 33.2719L14.8034 42.5282C13.2196 41.573 11.5907 40.6549 10.0001 39.7041L6.84827 37.8494C6.5322 37.6498 6.11905 37.426 5.78709 37.2314L3.73154 36.0241C3.37233 35.8148 2.91204 35.563 2.57462 35.3396C2.56765 34.9142 2.58829 34.4739 2.59012 34.0457L2.60696 30.6759C1.98057 30.2363 1.20117 29.8497 0.565734 29.4031C1.2231 29.0707 1.87652 28.8711 2.6111 28.8382C2.59571 26.3922 2.6434 23.8829 2.66197 21.4342Z" fill="var(--fill-0, #F94C00)"/>
<path id="Vector_24" d="M0.565734 29.4031C1.2231 29.0707 1.87652 28.8711 2.6111 28.8382C3.41933 28.8568 3.8952 29.069 4.56611 29.4937C5.02551 29.7848 5.48626 30.0897 5.94555 30.3798L7.25876 31.1979C7.55467 31.385 7.95513 31.6127 8.18703 31.8639C8.8536 32.5857 9.31171 33.6679 9.54059 34.6176C9.64396 35.0465 9.71058 35.5807 9.76998 36.0164C9.85896 36.6399 9.92557 37.2667 9.96965 37.895C10.0105 38.4409 10.0588 39.0207 10.073 39.5694C10.0746 39.6295 10.0398 39.6624 10.0001 39.7041L6.84827 37.8494C6.5322 37.6498 6.11905 37.426 5.78709 37.2314L3.73154 36.0241C3.37233 35.8148 2.91204 35.563 2.57462 35.3396C2.56765 34.9142 2.58829 34.4739 2.59012 34.0457L2.60696 30.6759C1.98057 30.2363 1.20117 29.8497 0.565734 29.4031Z" fill="var(--fill-0, #C23701)"/>
<path id="Vector_25" d="M2.60695 30.6759C3.17113 31.0123 3.67295 31.3922 4.2032 31.7134C4.73613 31.4666 4.97456 31.3593 5.54714 31.2235C6.52528 32.6357 6.69811 34.9357 6.80361 36.6283C6.81919 36.8821 6.82981 37.1364 6.83549 37.3909C6.83798 37.5181 6.83021 37.732 6.84825 37.8494C6.53218 37.6497 6.11903 37.426 5.78707 37.2314L3.73153 36.0241C3.37232 35.8148 2.91202 35.563 2.5746 35.3396C2.56764 34.9142 2.58827 34.4739 2.5901 34.0457L2.60695 30.6759Z" fill="var(--fill-0, #F94C00)"/>
<path id="Vector_26" d="M15.0686 14.4559C15.4613 14.6493 15.8364 14.8797 16.2186 15.0952C17.2087 15.6594 18.1916 16.2363 19.1672 16.8256C19.569 17.065 19.9726 17.3014 20.378 17.5347C20.7479 17.7464 21.1116 17.9392 21.4544 18.1942C21.9374 18.3689 22.5565 18.4755 23.0554 18.6198C23.2985 18.6901 23.5704 18.7342 23.793 18.859C23.9724 18.9573 24.1165 19.1102 24.2046 19.2958C24.2919 19.4803 24.3174 19.6755 24.3141 19.878C24.273 20.0909 24.2329 20.2425 24.1728 20.4512C24.1123 20.6437 24.0716 20.8604 24.0229 21.0592L23.7399 22.1923C23.684 22.4203 23.5273 22.922 23.5201 23.1225L23.0741 23.377C22.9502 23.4678 22.2711 23.8542 22.1216 23.9092L21.9329 24.0169C21.6012 24.2398 21.1003 24.5022 20.7409 24.7025L18.8945 25.74C18.7289 25.833 17.7176 26.4265 17.5885 26.467C17.4106 26.5743 17.2949 26.6419 17.1064 26.7292C17.0008 26.661 15.3159 26.2448 15.068 26.1799C14.7976 26.1345 14.4665 26.0188 14.1945 25.9464L11.1852 25.1714C10.7639 25.063 10.3441 24.9408 9.92281 24.8322C9.83551 24.8098 9.75119 24.7773 9.70552 24.8647C9.56036 24.8122 8.53991 24.1874 8.36628 24.0777C8.27118 24.0433 7.67243 23.6811 7.55648 23.6131C6.9381 23.2539 6.32205 22.8906 5.70837 22.5234C5.59653 22.4626 5.50115 22.4012 5.39385 22.3323C5.42058 22.2676 5.48289 21.9887 5.50472 21.901C5.58976 21.5597 5.66717 21.223 5.76255 20.8841C5.80532 20.7321 5.93352 20.3914 5.92022 20.2543C5.9707 20.1752 6.10534 19.5983 6.1521 19.447L6.1962 19.2427C6.42137 18.348 6.65582 17.4557 6.89949 16.5659C7.00876 16.1627 7.08387 15.7584 7.24327 15.3697C7.36031 15.0431 7.86424 14.6949 8.21755 14.749C8.70331 14.8233 9.29845 15.0004 9.78579 15.131L12.4737 15.8353C12.5163 15.8462 12.5592 15.8564 12.6021 15.8658C12.7775 15.767 13.4837 15.3842 13.5915 15.2942C14.0768 15.035 14.5894 14.7299 15.0686 14.4559Z" fill="var(--fill-0, #904E31)"/>
<path id="Vector_27" d="M15.0686 14.4559C15.4613 14.6493 15.8364 14.8797 16.2186 15.0952C17.2087 15.6594 18.1916 16.2363 19.1672 16.8256C19.569 17.065 19.9726 17.3014 20.378 17.5347C20.7479 17.7464 21.1116 17.9392 21.4544 18.1942C21.9374 18.3689 22.5565 18.4755 23.0554 18.6198C23.2985 18.6901 23.5704 18.7342 23.793 18.859C23.9724 18.9573 24.1165 19.1102 24.2046 19.2958C24.2919 19.4803 24.3174 19.6755 24.3141 19.878C24.273 20.0909 24.2329 20.2425 24.1728 20.4512C24.1123 20.6437 24.0716 20.8604 24.0229 21.0592L23.7399 22.1923C23.684 22.4203 23.5273 22.922 23.5201 23.1225L23.0741 23.377C22.9916 23.1697 23.8228 20.9468 23.6648 20.5669C23.5018 20.1747 23.053 20.1336 22.6784 20.0364L21.7344 19.7867L18.0563 18.8192L11.6457 17.1269L9.22605 16.4907C8.84586 16.3921 8.47409 16.2932 8.0853 16.1968C7.73564 16.11 7.41596 16.1995 7.26743 16.5589C7.19621 16.7312 7.15905 16.963 7.11463 17.1499C7.05902 17.3751 7.00025 17.5995 6.93834 17.8231L6.12887 20.9302C6.00505 21.4102 5.85703 22.0622 5.70837 22.5234C5.59653 22.4626 5.50115 22.4012 5.39385 22.3323C5.42058 22.2676 5.48289 21.9887 5.50472 21.901C5.58976 21.5597 5.66717 21.223 5.76255 20.8841C5.80532 20.7321 5.93352 20.3914 5.92022 20.2543C5.9707 20.1752 6.10534 19.5983 6.1521 19.447L6.1962 19.2427C6.42137 18.348 6.65582 17.4557 6.89949 16.5659C7.00876 16.1627 7.08387 15.7584 7.24327 15.3697C7.36031 15.0431 7.86424 14.6949 8.21755 14.749C8.70331 14.8233 9.29845 15.0004 9.78579 15.131L12.4737 15.8353C12.5163 15.8462 12.5592 15.8564 12.6021 15.8658C12.7775 15.767 13.4837 15.3842 13.5915 15.2942C14.0768 15.035 14.5894 14.7299 15.0686 14.4559Z" fill="var(--fill-0, #612F19)"/>
<path id="Vector_28" d="M15.0686 14.4559C15.4613 14.6493 15.8364 14.8797 16.2186 15.0952C17.2087 15.6594 18.1916 16.2363 19.1672 16.8256C19.569 17.065 19.9726 17.3014 20.378 17.5347C20.7479 17.7464 21.1116 17.9392 21.4544 18.1942C21.2744 18.1757 20.8778 18.0621 20.6815 18.0068C20.2906 17.8967 19.758 17.7878 19.3883 17.6415C19.3561 17.6512 19.2984 17.6649 19.2665 17.6545C18.9838 17.5631 18.7002 17.4729 18.4133 17.3965L15.9501 16.7572C15.7331 16.7 15.2541 16.5432 15.0652 16.5316C14.7241 16.4319 13.7121 16.1955 13.4428 16.0685C13.3269 16.0864 12.7516 15.9081 12.6021 15.8658C12.7775 15.767 13.4837 15.3842 13.5915 15.2942C14.0768 15.035 14.5894 14.7299 15.0686 14.4559Z" fill="var(--fill-0, #F57831)"/>
<path id="Vector_29" d="M15.0367 15.1601L15.0642 15.1395C15.1364 15.1577 15.2239 15.2196 15.2907 15.2597C16.6441 16.072 18.0379 16.8251 19.3882 17.6415C19.356 17.6512 19.2984 17.6649 19.2664 17.6545C18.9837 17.5631 18.7002 17.4729 18.4132 17.3966L15.9501 16.7572C15.7331 16.7 15.254 16.5432 15.0652 16.5316C15.0623 16.2993 15.0895 15.31 15.0367 15.1601Z" fill="var(--fill-0, #904E31)"/>
<path id="Vector_30" d="M13.4428 16.0685C13.9711 15.7562 14.508 15.4693 15.0367 15.1601C15.0895 15.31 15.0623 16.2993 15.0652 16.5316C14.724 16.4319 13.712 16.1955 13.4428 16.0685Z" fill="var(--fill-0, #6E1E00)"/>
<path id="Vector_31" d="M16.5972 19.5163C16.6364 20.0037 16.5375 20.6282 16.5495 21.1313C16.5574 21.4601 16.3853 22.1563 16.8099 22.2963C17.1006 22.392 17.4296 22.4696 17.7239 22.5438L19.0923 22.8985L20.5287 23.2724C20.8239 23.3509 21.1197 23.4384 21.4186 23.5018C21.6282 23.5462 21.7883 23.4332 21.8925 23.257C22.0612 22.9716 22.2049 22.6622 22.3516 22.3632L23.0285 21.0087C22.763 21.8649 22.6221 22.7923 22.3179 23.6394C22.3052 23.6743 22.1664 23.8397 22.1311 23.8941L22.1215 23.9092L21.9328 24.017C21.7965 23.9735 21.7365 24.0466 21.5727 24.0457C21.4249 24.0477 21.2559 24.0387 21.1121 24.0003C19.6379 23.6067 18.1584 23.2296 16.6865 22.8281C16.4218 22.7557 16.2287 22.619 16.1053 22.3637C15.8874 21.9125 16.1264 21.3747 16.2236 20.9198C16.3373 20.452 16.4452 19.9668 16.5972 19.5163Z" fill="var(--fill-0, #612F19)"/>
<path id="Vector_32" d="M8.36625 24.0777C8.49004 24.0814 8.88127 24.1925 9.01853 24.2278L10.0944 24.5007L14.2321 25.5823C15.0477 25.79 15.8619 26.0028 16.6747 26.2213C16.8013 26.2545 17.4944 26.4218 17.5884 26.467C17.4106 26.5743 17.2949 26.6419 17.1064 26.7292C17.0007 26.661 15.3159 26.2448 15.068 26.1799C14.7976 26.1345 14.4665 26.0188 14.1945 25.9464L11.1851 25.1714C10.7638 25.063 10.3441 24.9408 9.92279 24.8322C9.83548 24.8098 9.75116 24.7773 9.70549 24.8647C9.56034 24.8122 8.53988 24.1874 8.36625 24.0777Z" fill="var(--fill-0, #612F19)"/>
<path id="Vector_33" d="M7.91353 18.1649C8.01178 17.7237 8.06259 17.3933 8.61142 17.5228C8.86585 17.5829 9.11923 17.6489 9.37238 17.7162L10.5139 18.0147C11.4684 18.2649 12.4228 18.5158 13.3778 18.7636C13.655 18.8356 13.7872 18.8887 13.8979 19.1759C13.8854 19.3187 13.862 19.5685 13.7857 19.6928C14.415 19.7933 14.2489 20.3748 13.7877 20.2598C13.5285 20.1952 13.1996 20.1003 12.9313 20.0323L9.78639 19.2125C9.34375 19.0952 8.90026 18.9811 8.45599 18.8703C8.21571 18.81 7.90358 18.7443 7.67863 18.6666C7.20837 18.5042 7.34286 17.9948 7.91353 18.1649Z" fill="var(--fill-0, #F6D7B9)"/>
<path id="Vector_34" d="M13.7857 19.6928C14.415 19.7933 14.2489 20.3748 13.7877 20.2598C13.5285 20.1952 13.1996 20.1003 12.9313 20.0323L9.78639 19.2125C9.34375 19.0952 8.90026 18.9811 8.45599 18.8703C8.21571 18.81 7.90358 18.7443 7.67863 18.6666C7.20837 18.5042 7.34286 17.9948 7.91353 18.1649C9.11296 18.4532 10.3057 18.7902 11.5022 19.0929C12.0296 19.2274 12.5562 19.3651 13.0819 19.5061C13.2376 19.5473 13.6605 19.6447 13.7857 19.6928Z" fill="var(--fill-0, #612F19)"/>
<path id="Vector_35" d="M15.4115 18.9093C15.9786 18.9014 15.6102 19.6048 15.5412 19.9326C15.4628 20.3052 15.3436 20.7021 15.2489 21.0737L14.6619 23.3601C14.5612 23.7559 14.461 24.1694 14.349 24.5628C14.324 24.6508 14.2509 24.7052 14.1809 24.7609C13.994 24.7756 13.9715 24.7385 13.8501 24.6097C13.8545 24.5088 13.8678 24.4083 13.8898 24.3096C14.1442 23.1673 14.5069 21.8785 14.803 20.7321C14.9037 20.34 15.0065 19.9485 15.1114 19.5575C15.181 19.2991 15.1854 19.0553 15.4115 18.9093Z" fill="var(--fill-0, #612F19)"/>
<path id="Vector_36" d="M23.3405 27.7529C24.0999 27.4495 24.8652 27.1774 25.622 26.8639C26.2474 26.605 26.5935 26.4497 27.103 25.9936L27.0984 26.804C27.0797 27.863 27.0451 29.0097 27.0586 30.0632C27.8261 30.0435 28.5524 30.3168 29.1945 30.7225C28.4482 31.0728 27.6931 31.3604 27.0575 31.8946L27.0384 34.0235C27.036 34.4614 27.0451 34.9671 27.0238 35.4C26.0034 35.9563 24.8874 36.6584 23.8722 37.2533C21.6595 38.5604 19.4397 39.855 17.2129 41.1375L15.566 42.1033C15.4251 42.186 14.9144 42.4977 14.8034 42.5282L14.8642 33.2719L14.8909 29.9118C14.8913 29.6834 14.9072 28.7772 14.8764 28.6071C14.9529 28.535 15.4733 28.2763 15.6224 28.1699C15.7511 28.0844 15.8071 28.0865 15.9563 28.1225C17.3663 28.4619 18.2571 29.1569 19.034 30.369L19.131 30.5222C19.5036 30.1793 19.8979 29.9068 20.3643 29.7071C20.8008 29.5204 21.0228 29.4871 21.4215 29.1771C22.0632 28.6462 22.6161 28.162 23.3405 27.7529Z" fill="var(--fill-0, #C53302)"/>
<path id="Vector_37" d="M27.0586 30.0632C27.8261 30.0435 28.5524 30.3168 29.1945 30.7225C28.4482 31.0728 27.6931 31.3604 27.0575 31.8946C27.0003 31.9525 26.8266 32.2094 26.7817 32.2342C26.6355 32.3148 25.6932 32.958 25.5985 32.9483C25.1963 32.9067 24.5426 32.3345 24.1082 32.4141C24.0002 32.533 23.889 32.8582 23.8269 33.0163C23.2536 34.4739 23.1254 36.1053 23.0505 37.662C22.29 38.1489 21.4809 38.5865 20.7067 39.0527C20.415 39.2282 20.1112 39.3794 19.821 39.5588C19.8739 37.8509 20.0229 36.2189 20.6057 34.5988C20.8036 34.0488 21.0958 33.4507 21.4774 33.0063C21.6978 32.7498 22.1555 32.5172 22.4509 32.3347L24.0115 31.3773C25.1373 30.6832 25.701 30.1338 27.0586 30.0632Z" fill="var(--fill-0, #F94C00)"/>
<path id="Vector_38" d="M23.3405 27.7529C24.0999 27.4495 24.8652 27.1774 25.622 26.8639C26.2474 26.605 26.5935 26.4497 27.103 25.9936L27.0985 26.804C26.9672 26.8407 26.6205 27.0506 26.482 27.1305C26.1246 27.3389 25.7659 27.5447 25.4057 27.7478L20.2291 30.6674C19.3865 31.1485 18.3475 31.783 17.5029 32.216C16.8569 30.9561 16.2236 29.4715 15.6224 28.1699C15.7511 28.0844 15.8071 28.0865 15.9563 28.1225C17.3663 28.4619 18.2571 29.1569 19.034 30.369L19.1311 30.5222C19.5036 30.1793 19.898 29.9068 20.3644 29.7071C20.8009 29.5204 21.0228 29.4871 21.4215 29.1771C22.0632 28.6462 22.6161 28.162 23.3405 27.7529Z" fill="var(--fill-0, #6E1E00)"/>
<path id="Vector_39" d="M9.70547 24.8647C9.75113 24.7773 9.83546 24.8098 9.92276 24.8322C10.3441 24.9408 10.7638 25.063 11.1851 25.1714L14.1944 25.9464C14.4664 26.0188 14.7976 26.1345 15.0679 26.1799C15.0138 26.7277 15.0604 27.3593 15.0135 27.9216C14.9477 27.94 14.9088 27.9178 14.8517 27.8834C13.1492 26.8593 11.4015 25.8986 9.70547 24.8647Z" fill="var(--fill-0, #6E1E00)"/>
<path id="Vector_40" d="M20.3897 26.1395C21.18 26.5285 21.9832 26.8959 22.7284 27.367C22.9326 27.496 23.1379 27.6208 23.3405 27.7529C22.6161 28.162 22.0633 28.6462 21.4215 29.1771C21.3902 28.9237 21.3941 28.6956 21.3456 28.4272C21.1972 27.6065 20.8016 26.8518 20.3897 26.1395Z" fill="var(--fill-0, #C53302)"/>
<path id="Vector_41" d="M23.52 23.1225C23.5272 22.922 23.6839 22.4203 23.7399 22.1923L24.0228 21.0592C24.0716 20.8604 24.1123 20.6437 24.1728 20.4512C24.7729 20.7964 25.6076 21.2538 26.1723 21.6289L23.52 23.1225Z" fill="var(--fill-0, #904E31)"/>
<path id="Vector_42" d="M3.49553 13.9543L3.51187 13.9813C3.7224 14.3261 4.04591 14.726 4.28031 15.0695C4.7391 15.7419 5.13081 16.5726 5.30383 17.3718L5.29032 17.3565C5.16609 17.2136 5.05069 17.0368 4.93694 16.8838C4.41426 16.1812 3.75113 15.6222 3.12748 15.0163C3.07026 14.9607 3.00988 14.8987 2.96164 14.8348C3.25618 14.6427 3.37205 14.2697 3.49553 13.9543Z" fill="var(--fill-0, #C53302)"/>
<path id="Vector_43" d="M5.92015 20.2543C5.93345 20.3914 5.80525 20.7321 5.76248 20.8841C5.6671 21.223 5.58969 21.5597 5.50465 21.901C5.48282 21.9887 5.4205 22.2676 5.39378 22.3323C4.88294 22.0366 4.32585 21.7378 3.83084 21.4281C4.00891 21.3103 4.42189 21.1024 4.63104 20.9884C5.06443 20.7503 5.49418 20.5056 5.92015 20.2543Z" fill="var(--fill-0, #6E1E00)"/>
<path id="Vector_44" d="M15.0679 26.1799C15.3159 26.2448 17.0007 26.661 17.1064 26.7292C16.6182 27.0127 16.124 27.2777 15.6325 27.5534C15.515 27.6193 15.0959 27.8496 15.0135 27.9216C15.0604 27.3593 15.0138 26.7277 15.0679 26.1799Z" fill="var(--fill-0, #904E31)"/>
<path id="Vector_45" d="M6.19619 19.2427L6.15209 19.447C5.9158 19.547 5.47172 19.828 5.22509 19.9654C4.59835 20.3146 3.97013 20.6585 3.36328 21.0413C3.50927 20.8633 3.92 20.62 4.1278 20.4838C4.74485 20.0794 5.51547 19.5385 6.19619 19.2427Z" fill="var(--fill-0, #C53302)"/>
<path id="Vector_46" d="M26.6004 21.8184C26.6783 21.7776 27.0586 21.5415 27.0941 21.5405L27.1248 21.6411L27.1098 21.8329C27.093 21.8769 27.1052 21.8584 27.0675 21.8852C26.9228 21.8817 26.7458 21.8442 26.6004 21.8184Z" fill="var(--fill-0, #C53302)"/>
<path id="Vector_47" d="M12.4736 15.8353C12.8062 15.6611 13.224 15.39 13.5823 15.264L13.5915 15.2942C13.4836 15.3842 12.7775 15.767 12.6021 15.8658C12.5591 15.8564 12.5163 15.8462 12.4736 15.8353Z" fill="var(--fill-0, #C53302)"/>
<path id="Vector_48" d="M22.4848 0H32.9999V8.49327C32.9405 8.31092 32.8961 8.1061 32.8256 7.9273C32.6351 7.44547 32.3108 6.98103 31.9077 6.66005C31.165 6.06904 30.2204 5.93022 29.3042 6.01894C29.0195 6.04649 28.7405 6.11514 28.4558 6.1491C28.1689 6.25997 27.7906 6.33858 27.4758 6.45661C26.4565 6.85016 25.4864 7.36276 24.5855 7.98388C24.9442 6.8734 25.2023 5.89683 25.3064 4.72274C25.3445 4.29238 25.3033 3.93803 25.3249 3.55193L25.326 3.53256C25.2605 2.96435 25.141 2.37221 24.9026 1.84979C24.5707 1.10297 23.9588 0.518922 23.2011 0.225183C22.9676 0.135515 22.729 0.0924352 22.5057 0.00800325L22.4848 0Z" fill="var(--fill-0, white)"/>
</g>
</svg>
